<svg width="225" height="29" viewBox="0 0 225 29" fill="none" xmlns="http://www.w3.org/2000/svg">
<path d="M20.4478 21.8477H24.4478V17.8477H20.4478V21.8477ZM20.4478 28V32H24.4478V28H20.4478ZM5.2207 28H1.2207V32H5.2207V28ZM5.2207 21.8477V17.8477H1.2207V21.8477H5.2207ZM8.02344 21.8477V25.8477H12.0234V21.8477H8.02344ZM8.02344 6.82568H12.0234V2.82568H8.02344V6.82568ZM5.61377 6.82568V2.82568H2.19255L1.66213 6.20554L5.61377 6.82568ZM4.87891 11.5083V15.5083H8.30013L8.83054 12.1284L4.87891 11.5083ZM0.0766602 11.5083H-3.92334V15.5083H0.0766602V11.5083ZM0.0766602 0.810059V-3.18994H-3.92334V0.810059H0.0766602ZM25.6602 0.810059H29.6602V-3.18994H25.6602V0.810059ZM25.6602 11.5083V15.5083H29.6602V11.5083H25.6602ZM20.875 11.5083L16.9234 12.1284L17.4538 15.5083H20.875V11.5083ZM20.1401 6.82568L24.0918 6.20554L23.5614 2.82568H20.1401V6.82568ZM17.645 6.82568V2.82568H13.645V6.82568H17.645ZM17.645 21.8477H13.645V25.8477H17.645V21.8477ZM16.4478 21.8477V28H24.4478V21.8477H16.4478ZM20.4478 24H5.2207V32H20.4478V24ZM9.2207 28V21.8477H1.2207V28H9.2207ZM5.2207 25.8477H8.02344V17.8477H5.2207V25.8477ZM12.0234 21.8477V6.82568H4.02344V21.8477H12.0234ZM8.02344 2.82568H5.61377V10.8257H8.02344V2.82568ZM1.66213 6.20554L0.927271 10.8882L8.83054 12.1284L9.5654 7.44583L1.66213 6.20554ZM4.87891 7.5083H0.0766602V15.5083H4.87891V7.5083ZM4.07666 11.5083V0.810059H-3.92334V11.5083H4.07666ZM0.0766602 4.81006H25.6602V-3.18994H0.0766602V4.81006ZM21.6602 0.810059V11.5083H29.6602V0.810059H21.6602ZM25.6602 7.5083H20.875V15.5083H25.6602V7.5083ZM24.8266 10.8882L24.0918 6.20554L16.1885 7.44583L16.9234 12.1284L24.8266 10.8882ZM20.1401 2.82568H17.645V10.8257H20.1401V2.82568ZM13.645 6.82568V21.8477H21.645V6.82568H13.645ZM17.645 25.8477H20.4478V17.8477H17.645V25.8477ZM38.2896 1.10059L35.9763 4.36387L35.986 4.37072L35.9957 4.37751L38.2896 1.10059ZM38.2554 6.89404L35.9192 3.64715L35.9097 3.65396L35.9003 3.66083L38.2554 6.89404ZM41.0239 22.856H45.0239V18.856H41.0239V22.856ZM41.0239 28V32H45.0239V28H41.0239ZM28.4287 28H24.4287V32H28.4287V28ZM28.4287 22.856V18.856H24.4287V22.856H28.4287ZM30.6333 22.856V26.856H34.6333V22.856H30.6333ZM30.6333 14.9775H34.6333V10.9775H30.6333V14.9775ZM28.4287 14.9775H24.4287V18.9775H28.4287V14.9775ZM28.4287 10.7734L28.0164 6.79474L24.4287 7.16649V10.7734H28.4287ZM38.8193 9.69678H42.8193V5.26089L38.4071 5.71808L38.8193 9.69678ZM38.8193 22.856H34.8193V26.856H38.8193V22.856ZM34.7349 3.90234C33.9451 3.90234 33.6547 3.72294 33.5694 3.66083L28.8593 10.1273C30.6197 11.4095 32.6763 11.9023 34.7349 11.9023V3.90234ZM33.5694 3.66083C33.5817 3.66975 33.6192 3.69958 33.6659 3.75487C33.7133 3.8111 33.7553 3.87614 33.7872 3.94302C33.8544 4.08408 33.8301 4.13141 33.8301 3.98877H25.8301C25.8301 6.37268 26.7804 8.613 28.8593 10.1273L33.5694 3.66083ZM33.8301 3.98877C33.8301 3.84469 33.8549 3.90281 33.7792 4.05971C33.743 4.1349 33.6947 4.20879 33.6389 4.27354C33.584 4.33731 33.5374 4.3741 33.5163 4.3889L28.9124 -2.15355C26.784 -0.655773 25.8301 1.60487 25.8301 3.98877H33.8301ZM33.5163 4.3889C33.5973 4.3319 33.9138 4.14355 34.769 4.14355V-3.85645C32.7304 -3.85645 30.6771 -3.39538 28.9124 -2.15355L33.5163 4.3889ZM34.769 4.14355C35.6434 4.14355 35.935 4.33459 35.9763 4.36387L40.6028 -2.1627C38.8439 -3.40946 36.7886 -3.85645 34.769 -3.85645V4.14355ZM35.9957 4.37751C35.9624 4.35418 35.9069 4.30899 35.8461 4.2378C35.7846 4.16586 35.735 4.08755 35.6996 4.01257C35.6269 3.85901 35.6567 3.81543 35.6567 3.98877H43.6567C43.6567 1.63231 42.7441 -0.663858 40.5834 -2.17634L35.9957 4.37751ZM35.6567 3.98877C35.6567 4.12465 35.6335 4.07106 35.7036 3.92576C35.7367 3.85717 35.7796 3.79184 35.827 3.73641C35.8734 3.682 35.9098 3.65393 35.9192 3.64715L40.5915 10.1409C42.685 8.63469 43.6567 6.39244 43.6567 3.98877H35.6567ZM35.9003 3.66083C35.815 3.72294 35.5246 3.90234 34.7349 3.90234V11.9023C36.7934 11.9023 38.85 11.4095 40.6104 10.1273L35.9003 3.66083ZM37.0239 22.856V28H45.0239V22.856H37.0239ZM41.0239 24H28.4287V32H41.0239V24ZM32.4287 28V22.856H24.4287V28H32.4287ZM28.4287 26.856H30.6333V18.856H28.4287V26.856ZM34.6333 22.856V14.9775H26.6333V22.856H34.6333ZM30.6333 10.9775H28.4287V18.9775H30.6333V10.9775ZM32.4287 14.9775V10.7734H24.4287V14.9775H32.4287ZM28.841 14.7521L39.2316 13.6755L38.4071 5.71808L28.0164 6.79474L28.841 14.7521ZM34.8193 9.69678V22.856H42.8193V9.69678H34.8193ZM38.8193 26.856H41.0239V18.856H38.8193V26.856ZM48.1504 27.1113L49.981 23.5548L49.9654 23.5467L49.9497 23.5388L48.1504 27.1113ZM44.5103 23.7617L41.0779 25.8157L44.5103 23.7617ZM44.3052 13.8838L47.8597 15.7184L47.8655 15.707L47.8713 15.6956L44.3052 13.8838ZM47.3813 10.5513L45.3191 7.12386L45.3126 7.12775L45.3062 7.13166L47.3813 10.5513ZM54.2002 9.59424L53.3137 13.4948L53.3419 13.5012L53.3702 13.5072L54.2002 9.59424ZM56.2168 10.312L54.3204 13.8339L54.3343 13.8414L54.3483 13.8488L56.2168 10.312ZM57.4131 11.5083L53.7053 13.0091L57.4975 22.3781L61.1437 12.9513L57.4131 11.5083ZM58.1138 9.69678V5.69678H55.3721L54.3831 8.25379L58.1138 9.69678ZM61.8394 9.69678H65.8394V5.69678H61.8394V9.69678ZM61.8394 17.2505V21.2505H65.8394V17.2505H61.8394ZM56.9004 17.2505L52.9202 17.6485L53.2804 21.2505H56.9004V17.2505ZM52.2007 15.2852L55.2736 17.8459L55.2851 17.8321L55.2965 17.8181L52.2007 15.2852ZM52.0469 21.3862L48.6483 23.4957L48.6697 23.5301L48.6918 23.5641L52.0469 21.3862ZM53.6704 22.7876L52.0871 26.4609L52.125 26.4772L52.1632 26.4928L53.6704 22.7876ZM58.4727 22.7705L59.6137 26.6043L59.6346 26.5981L59.6554 26.5917L58.4727 22.7705ZM61.019 21.3862L63.2378 18.058L60.7332 16.3883L58.4353 18.3327L61.019 21.3862ZM61.2754 21.5571H65.2754V19.4164L63.4942 18.2289L61.2754 21.5571ZM60.2329 26.9062L58.4676 23.3169L58.4441 23.3284L58.4207 23.3403L60.2329 26.9062ZM57.4644 27.8804L58.4254 31.7632L58.4435 31.7587L58.4615 31.7541L57.4644 27.8804ZM53.6021 24.3076C52.0297 24.3076 50.8633 24.0089 49.981 23.5548L46.3198 30.6679C48.5364 31.8088 51.0045 32.3076 53.6021 32.3076V24.3076ZM49.9497 23.5388C49.0401 23.0808 48.4044 22.4794 47.9426 21.7077L41.0779 25.8157C42.3479 27.9379 44.1389 29.5696 46.3511 30.6838L49.9497 23.5388ZM47.9426 21.7077C47.5049 20.9762 47.2114 20.007 47.2114 18.6519H39.2114C39.2114 21.2159 39.7839 23.6534 41.0779 25.8157L47.9426 21.7077ZM47.2114 18.6519C47.2114 17.4524 47.4545 16.5034 47.8597 15.7184L40.7507 12.0492C39.6975 14.0897 39.2114 16.3194 39.2114 18.6519H47.2114ZM47.8713 15.6956C48.2574 14.9358 48.7714 14.3866 49.4565 13.9709L45.3062 7.13166C43.3253 8.33376 41.7885 10.0063 40.739 12.072L47.8713 15.6956ZM49.4436 13.9787C50.0859 13.5922 50.9146 13.3379 52.064 13.3379V5.33789C49.6586 5.33789 47.3656 5.89251 45.3191 7.12386L49.4436 13.9787ZM52.064 13.3379C52.398 13.3379 52.811 13.3805 53.3137 13.4948L55.0867 5.69371C54.0855 5.46616 53.0743 5.33789 52.064 5.33789V13.3379ZM53.3702 13.5072C53.8018 13.5987 54.1067 13.7188 54.3204 13.8339L58.1132 6.79013C57.142 6.26717 56.1025 5.90876 55.0302 5.6813L53.3702 13.5072ZM54.3483 13.8488C54.3903 13.871 53.966 13.6531 53.7053 13.0091L61.1209 10.0075C60.4728 8.40646 59.2509 7.39105 58.0853 6.77524L54.3483 13.8488ZM61.1437 12.9513L61.8444 11.1398L54.3831 8.25379L53.6824 10.0653L61.1437 12.9513ZM58.1138 13.6968H61.8394V5.69678H58.1138V13.6968ZM57.8394 9.69678V17.2505H65.8394V9.69678H57.8394ZM61.8394 13.2505H56.9004V21.2505H61.8394V13.2505ZM60.8805 16.8525C60.7355 15.4018 60.2652 13.816 59.1199 12.4945L53.0744 17.734C52.9509 17.5915 52.8999 17.4747 52.8871 17.4406C52.877 17.4136 52.9024 17.4704 52.9202 17.6485L60.8805 16.8525ZM59.1199 12.4945C57.9391 11.132 56.2954 10.3452 54.4395 10.3452V18.3452C54.2384 18.3452 53.9609 18.3028 53.6661 18.166C53.3741 18.0306 53.1801 17.8559 53.0744 17.734L59.1199 12.4945ZM54.4395 10.3452C52.5382 10.3452 50.5375 11.0012 49.1049 12.7522L55.2965 17.8181C55.1393 18.0103 54.9228 18.172 54.6933 18.2683C54.4845 18.356 54.3719 18.3452 54.4395 18.3452V10.3452ZM49.1278 12.7244C47.6416 14.5078 47.4316 16.9275 47.4316 18.686H55.4316C55.4316 18.0435 55.4837 17.6635 55.5254 17.479C55.5447 17.3938 55.5521 17.3943 55.5258 17.4539C55.4993 17.5143 55.4261 17.6629 55.2736 17.8459L49.1278 12.7244ZM47.4316 18.686C47.4316 20.245 47.7028 21.9723 48.6483 23.4957L55.4454 19.2768C55.513 19.3856 55.5075 19.4237 55.4855 19.327C55.4627 19.2269 55.4316 19.0233 55.4316 18.686H47.4316ZM48.6918 23.5641C49.5091 24.8233 50.6453 25.8395 52.0871 26.4609L55.2537 19.1143C55.272 19.1222 55.2944 19.1335 55.3187 19.1487C55.343 19.1639 55.3646 19.1801 55.3826 19.1956C55.4207 19.2286 55.424 19.2422 55.402 19.2083L48.6918 23.5641ZM52.1632 26.4928C53.3314 26.968 54.557 27.1978 55.8066 27.1978V19.1978C55.5523 19.1978 55.3538 19.1541 55.1776 19.0824L52.1632 26.4928ZM55.8066 27.1978C57.0865 27.1978 58.3636 26.9763 59.6137 26.6043L57.3316 18.9367C56.6676 19.1343 56.1674 19.1978 55.8066 19.1978V27.1978ZM59.6554 26.5917C61.1091 26.1417 62.4381 25.4253 63.6028 24.4398L58.4353 18.3327C58.1189 18.6004 57.7503 18.8069 57.2899 18.9494L59.6554 26.5917ZM58.8002 24.7144L59.0566 24.8853L63.4942 18.2289L63.2378 18.058L58.8002 24.7144ZM57.2754 21.5571V26.3252H65.2754V21.5571H57.2754ZM57.2754 26.3252C57.2754 25.143 57.7941 24.3364 57.9602 24.0913C58.1808 23.7658 58.4003 23.5479 58.5029 23.4504C58.7165 23.2473 58.8995 23.1217 58.9418 23.0926C59.0562 23.0138 59.1222 22.9801 59.0673 23.0107C58.9858 23.0562 58.7995 23.1536 58.4676 23.3169L61.9982 30.4956C62.3613 30.3171 62.6962 30.1468 62.9622 29.9986C63.0811 29.9323 63.2774 29.8203 63.4786 29.6817C63.5644 29.6227 63.78 29.4718 64.0153 29.248C64.1287 29.1402 64.3564 28.9131 64.5824 28.5797C64.754 28.3265 65.2754 27.5131 65.2754 26.3252H57.2754ZM58.4207 23.3403C58.0829 23.512 57.4663 23.7495 56.4672 24.0067L58.4615 31.7541C59.7639 31.4188 60.993 31.0069 62.0451 30.4722L58.4207 23.3403ZM56.5033 23.9976C55.7225 24.1908 54.7649 24.3076 53.6021 24.3076V32.3076C55.2875 32.3076 56.9048 32.1396 58.4254 31.7632L56.5033 23.9976ZM94.0366 21.8477H98.0366V17.8477H94.0366V21.8477ZM94.0366 28V32H98.0366V28H94.0366ZM78.8096 28H74.8096V32H78.8096V28ZM78.8096 21.8477V17.8477H74.8096V21.8477H78.8096ZM81.6123 21.8477V25.8477H85.6123V21.8477H81.6123ZM81.6123 6.82568H85.6123V2.82568H81.6123V6.82568ZM79.2026 6.82568V2.82568H75.7814L75.251 6.20554L79.2026 6.82568ZM78.4678 11.5083V15.5083H81.889L82.4194 12.1284L78.4678 11.5083ZM73.6655 11.5083H69.6655V15.5083H73.6655V11.5083ZM73.6655 0.810059V-3.18994H69.6655V0.810059H73.6655ZM99.249 0.810059H103.249V-3.18994H99.249V0.810059ZM99.249 11.5083V15.5083H103.249V11.5083H99.249ZM94.4639 11.5083L90.5122 12.1284L91.0426 15.5083H94.4639V11.5083ZM93.729 6.82568L97.6806 6.20554L97.1502 2.82568H93.729V6.82568ZM91.2339 6.82568V2.82568H87.2339V6.82568H91.2339ZM91.2339 21.8477H87.2339V25.8477H91.2339V21.8477ZM90.0366 21.8477V28H98.0366V21.8477H90.0366ZM94.0366 24H78.8096V32H94.0366V24ZM82.8096 28V21.8477H74.8096V28H82.8096ZM78.8096 25.8477H81.6123V17.8477H78.8096V25.8477ZM85.6123 21.8477V6.82568H77.6123V21.8477H85.6123ZM81.6123 2.82568H79.2026V10.8257H81.6123V2.82568ZM75.251 6.20554L74.5161 10.8882L82.4194 12.1284L83.1543 7.44583L75.251 6.20554ZM78.4678 7.5083H73.6655V15.5083H78.4678V7.5083ZM77.6655 11.5083V0.810059H69.6655V11.5083H77.6655ZM73.6655 4.81006H99.249V-3.18994H73.6655V4.81006ZM95.249 0.810059V11.5083H103.249V0.810059H95.249ZM99.249 7.5083H94.4639V15.5083H99.249V7.5083ZM98.4155 10.8882L97.6806 6.20554L89.7774 7.44583L90.5122 12.1284L98.4155 10.8882ZM93.729 2.82568H91.2339V10.8257H93.729V2.82568ZM87.2339 6.82568V21.8477H95.2339V6.82568H87.2339ZM91.2339 25.8477H94.0366V17.8477H91.2339V25.8477ZM103.949 27.624L105.685 24.0206L105.659 24.0081L105.633 23.996L103.949 27.624ZM101.659 25.6929L98.3443 27.9323L101.659 25.6929ZM101.812 19.6772L98.7186 17.142L98.7016 17.1627L98.6849 17.1836L101.812 19.6772ZM104.444 17.8315L103.04 14.0862L103.027 14.0911L104.444 17.8315ZM112.289 17.8828L111.061 21.6899L116.289 23.3747V17.8828H112.289ZM111.126 15.0288L109.002 18.418L109.013 18.425L109.024 18.432L111.126 15.0288ZM104.103 15.0801L102.741 11.319L104.103 15.0801ZM102.376 15.8833L100.847 19.5794L102.716 20.3526L104.446 19.3062L102.376 15.8833ZM101.881 15.6782H97.8809V18.352L100.351 19.3743L101.881 15.6782ZM101.881 10.7051L100.541 6.936L97.8809 7.88149V10.7051H101.881ZM106.102 9.6626L106.668 13.6224L106.683 13.6202L106.698 13.6179L106.102 9.6626ZM120.509 22.856H116.509V26.856H120.509V22.856ZM122.115 22.856H126.115V18.856H122.115V22.856ZM122.115 28V32H126.115V28H122.115ZM113.365 28L109.508 29.0584L110.315 32H113.365V28ZM112.596 25.1973L116.454 24.1388L113.728 14.2071L109.036 23.3746L112.596 25.1973ZM111.468 23.7446L110.269 19.9287L110.253 19.9337L110.237 19.9389L111.468 23.7446ZM112.289 23.3516L115.002 26.2908L116.289 25.1029V23.3516H112.289ZM112.289 20.4805H116.289V16.9784L112.817 16.5156L112.289 20.4805ZM111.468 20.2754L112.628 16.4473L112.56 16.4267L112.492 16.4086L111.468 20.2754ZM109.007 20.6855L106.136 17.901L106.114 17.9237L106.092 17.9468L109.007 20.6855ZM108.973 23.4199L106.052 26.1526L106.098 26.2012L106.145 26.2483L108.973 23.4199ZM107.11 24.3076C106.484 24.3076 106.034 24.1885 105.685 24.0206L102.212 31.2274C103.755 31.971 105.412 32.3076 107.11 32.3076V24.3076ZM105.633 23.996C105.31 23.8459 105.12 23.6712 104.973 23.4534L98.3443 27.9323C99.3365 29.4007 100.673 30.5134 102.264 31.2521L105.633 23.996ZM104.973 23.4534C104.894 23.3358 104.804 23.1529 104.804 22.7534H96.8042C96.8042 24.587 97.2845 26.3637 98.3443 27.9323L104.973 23.4534ZM104.804 22.7534C104.804 22.3367 104.9 22.2205 104.94 22.1709L98.6849 17.1836C97.3801 18.8201 96.8042 20.7548 96.8042 22.7534H104.804ZM104.906 22.2125C105.095 21.9825 105.373 21.7574 105.862 21.572L103.027 14.0911C101.351 14.726 99.8745 15.7314 98.7186 17.142L104.906 22.2125ZM105.849 21.5769C106.458 21.3485 107.157 21.2163 107.982 21.2163V13.2163C106.277 13.2163 104.618 13.4942 103.04 14.0862L105.849 21.5769ZM107.982 21.2163C109.071 21.2163 110.091 21.3773 111.061 21.6899L113.516 14.0757C111.729 13.4997 109.878 13.2163 107.982 13.2163V21.2163ZM116.289 17.8828V17.1138H108.289V17.8828H116.289ZM116.289 17.1138C116.289 14.8172 115.184 12.8337 113.228 11.6256L109.024 18.432C108.916 18.3651 108.688 18.1864 108.504 17.8564C108.32 17.5265 108.289 17.2393 108.289 17.1138H116.289ZM113.251 11.6397C111.624 10.6198 109.756 10.311 108.016 10.311V18.311C108.435 18.311 108.712 18.35 108.877 18.388C109.038 18.4252 109.059 18.4536 109.002 18.418L113.251 11.6397ZM108.016 10.311C107.14 10.311 106.249 10.4172 105.364 10.5913L106.908 18.4409C107.413 18.3416 107.775 18.311 108.016 18.311V10.311ZM105.364 10.5913C104.47 10.7672 103.595 11.0097 102.741 11.319L105.464 18.8411C105.932 18.672 106.412 18.5385 106.908 18.4409L105.364 10.5913ZM102.741 11.319C101.887 11.6282 101.065 12.002 100.307 12.4604L104.446 19.3062C104.668 19.1721 104.997 19.0105 105.464 18.8411L102.741 11.319ZM103.906 12.1872L103.41 11.9822L100.351 19.3743L100.847 19.5794L103.906 12.1872ZM105.881 15.6782V10.7051H97.8809V15.6782H105.881ZM103.22 14.4742C104.35 14.0726 105.498 13.7895 106.668 13.6224L105.536 5.7028C103.835 5.94587 102.169 6.35772 100.541 6.936L103.22 14.4742ZM106.698 13.6179C107.969 13.4263 109.106 13.3379 110.118 13.3379V5.33789C108.647 5.33789 107.106 5.46591 105.506 5.70731L106.698 13.6179ZM110.118 13.3379C113.338 13.3379 115.111 13.8135 115.95 14.2854C116.309 14.4873 116.4 14.6337 116.418 14.6648C116.434 14.6918 116.509 14.8187 116.509 15.1826H124.509C124.509 11.7539 122.832 8.97786 119.872 7.31277C117.248 5.83642 113.826 5.33789 110.118 5.33789V13.3379ZM116.509 15.1826V22.856H124.509V15.1826H116.509ZM120.509 26.856H122.115V18.856H120.509V26.856ZM118.115 22.856V28H126.115V22.856H118.115ZM122.115 24H113.365V32H122.115V24ZM117.223 26.9416L116.454 24.1388L108.739 26.2557L109.508 29.0584L117.223 26.9416ZM109.036 23.3746C108.951 23.5408 108.804 23.7363 108.41 23.9483L112.203 30.9921C113.882 30.0876 115.262 28.7678 116.157 27.02L109.036 23.3746ZM108.41 23.9483C107.91 24.2175 107.492 24.3076 107.11 24.3076V32.3076C108.916 32.3076 110.629 31.8395 112.203 30.9921L108.41 23.9483ZM110.323 27.9326C111.15 27.9326 111.947 27.7938 112.7 27.5504L110.237 19.9389C110.224 19.9431 110.227 19.9412 110.243 19.9385C110.261 19.9356 110.288 19.9326 110.323 19.9326V27.9326ZM112.668 27.5606C113.152 27.4085 114.161 27.0667 115.002 26.2908L109.575 20.4123C109.75 20.251 109.906 20.1425 110.009 20.0765C110.115 20.0092 110.198 19.967 110.244 19.9451C110.329 19.9044 110.35 19.9033 110.269 19.9287L112.668 27.5606ZM116.289 23.3516V20.4805H108.289V23.3516H116.289ZM112.817 16.5156C112.89 16.5253 112.936 16.5346 112.945 16.5364C112.957 16.5388 112.951 16.538 112.925 16.5315C112.872 16.5181 112.776 16.492 112.628 16.4473L110.308 24.1035C110.697 24.2214 111.24 24.3761 111.76 24.4454L112.817 16.5156ZM112.492 16.4086C111.894 16.2504 111.199 16.1216 110.46 16.1216V24.1216C110.412 24.1216 110.376 24.1194 110.354 24.1176C110.332 24.1158 110.321 24.1141 110.322 24.1143C110.324 24.1145 110.334 24.1162 110.356 24.1207C110.377 24.1251 110.406 24.132 110.445 24.1422L112.492 16.4086ZM110.46 16.1216C108.954 16.1216 107.371 16.6275 106.136 17.901L111.879 23.4701C111.664 23.6922 111.391 23.8751 111.092 23.9914C110.804 24.1032 110.574 24.1216 110.46 24.1216V16.1216ZM106.092 17.9468C104.899 19.2172 104.478 20.776 104.478 22.1895H112.478C112.478 22.2497 112.469 22.4275 112.383 22.6725C112.292 22.9299 112.138 23.1946 111.923 23.4242L106.092 17.9468ZM104.478 22.1895C104.478 23.7103 105.056 25.0873 106.052 26.1526L111.894 20.6873C112.035 20.8373 112.193 21.059 112.312 21.353C112.431 21.6493 112.478 21.9402 112.478 22.1895H104.478ZM106.145 26.2483C107.354 27.4574 108.882 27.9326 110.323 27.9326V19.9326C110.453 19.9326 110.692 19.953 110.987 20.065C111.293 20.1811 111.574 20.3643 111.802 20.5915L106.145 26.2483ZM129.361 27.1113L131.192 23.5548L131.176 23.5467L131.161 23.5388L129.361 27.1113ZM125.721 23.7617L122.289 25.8157L125.721 23.7617ZM125.516 13.8838L129.071 15.7184L129.076 15.707L129.082 15.6956L125.516 13.8838ZM128.592 10.5513L126.53 7.12386L126.524 7.12775L126.517 7.13166L128.592 10.5513ZM135.411 9.59424L134.525 13.4948L134.553 13.5012L134.581 13.5072L135.411 9.59424ZM137.428 10.312L135.531 13.8339L135.545 13.8414L135.559 13.8488L137.428 10.312ZM138.624 11.5083L134.916 13.0091L138.708 22.3781L142.355 12.9513L138.624 11.5083ZM139.325 9.69678V5.69678H136.583L135.594 8.25379L139.325 9.69678ZM143.05 9.69678H147.05V5.69678H143.05V9.69678ZM143.05 17.2505V21.2505H147.05V17.2505H143.05ZM138.111 17.2505L134.131 17.6485L134.491 21.2505H138.111V17.2505ZM133.412 15.2852L136.485 17.8459L136.496 17.8321L136.507 17.8181L133.412 15.2852ZM133.258 21.3862L129.859 23.4957L129.881 23.5301L129.903 23.5641L133.258 21.3862ZM134.881 22.7876L133.298 26.4609L133.336 26.4772L133.374 26.4928L134.881 22.7876ZM139.684 22.7705L140.825 26.6043L140.846 26.5981L140.866 26.5917L139.684 22.7705ZM142.23 21.3862L144.449 18.058L141.944 16.3883L139.646 18.3327L142.23 21.3862ZM142.486 21.5571H146.486V19.4164L144.705 18.2289L142.486 21.5571ZM141.444 26.9062L139.679 23.3169L139.655 23.3284L139.632 23.3403L141.444 26.9062ZM138.675 27.8804L139.636 31.7632L139.654 31.7587L139.672 31.7541L138.675 27.8804ZM134.813 24.3076C133.241 24.3076 132.074 24.0089 131.192 23.5548L127.531 30.6679C129.747 31.8088 132.215 32.3076 134.813 32.3076V24.3076ZM131.161 23.5388C130.251 23.0808 129.615 22.4794 129.154 21.7077L122.289 25.8157C123.559 27.9379 125.35 29.5696 127.562 30.6838L131.161 23.5388ZM129.154 21.7077C128.716 20.9762 128.422 20.007 128.422 18.6519H120.422C120.422 21.2159 120.995 23.6534 122.289 25.8157L129.154 21.7077ZM128.422 18.6519C128.422 17.4524 128.665 16.5034 129.071 15.7184L121.962 12.0492C120.908 14.0897 120.422 16.3194 120.422 18.6519H128.422ZM129.082 15.6956C129.468 14.9358 129.982 14.3866 130.667 13.9709L126.517 7.13166C124.536 8.33376 122.999 10.0063 121.95 12.072L129.082 15.6956ZM130.655 13.9787C131.297 13.5922 132.126 13.3379 133.275 13.3379V5.33789C130.87 5.33789 128.577 5.89251 126.53 7.12386L130.655 13.9787ZM133.275 13.3379C133.609 13.3379 134.022 13.3805 134.525 13.4948L136.298 5.69371C135.296 5.46616 134.285 5.33789 133.275 5.33789V13.3379ZM134.581 13.5072C135.013 13.5987 135.318 13.7188 135.531 13.8339L139.324 6.79013C138.353 6.26717 137.313 5.90876 136.241 5.6813L134.581 13.5072ZM135.559 13.8488C135.601 13.871 135.177 13.6531 134.916 13.0091L142.332 10.0075C141.684 8.40646 140.462 7.39105 139.296 6.77524L135.559 13.8488ZM142.355 12.9513L143.055 11.1398L135.594 8.25379L134.893 10.0653L142.355 12.9513ZM139.325 13.6968H143.05V5.69678H139.325V13.6968ZM139.05 9.69678V17.2505H147.05V9.69678H139.05ZM143.05 13.2505H138.111V21.2505H143.05V13.2505ZM142.091 16.8525C141.946 15.4018 141.476 13.816 140.331 12.4945L134.285 17.734C134.162 17.5915 134.111 17.4747 134.098 17.4406C134.088 17.4136 134.113 17.4704 134.131 17.6485L142.091 16.8525ZM140.331 12.4945C139.15 11.132 137.506 10.3452 135.65 10.3452V18.3452C135.449 18.3452 135.172 18.3028 134.877 18.166C134.585 18.0306 134.391 17.8559 134.285 17.734L140.331 12.4945ZM135.65 10.3452C133.749 10.3452 131.748 11.0012 130.316 12.7522L136.507 17.8181C136.35 18.0103 136.134 18.172 135.904 18.2683C135.695 18.356 135.583 18.3452 135.65 18.3452V10.3452ZM130.339 12.7244C128.853 14.5078 128.643 16.9275 128.643 18.686H136.643C136.643 18.0435 136.695 17.6635 136.736 17.479C136.756 17.3938 136.763 17.3943 136.737 17.4539C136.71 17.5143 136.637 17.6629 136.485 17.8459L130.339 12.7244ZM128.643 18.686C128.643 20.245 128.914 21.9723 129.859 23.4957L136.656 19.2768C136.724 19.3856 136.718 19.4237 136.696 19.327C136.674 19.2269 136.643 19.0233 136.643 18.686H128.643ZM129.903 23.5641C130.72 24.8233 131.856 25.8395 133.298 26.4609L136.465 19.1143C136.483 19.1222 136.505 19.1335 136.53 19.1487C136.554 19.1639 136.576 19.1801 136.594 19.1956C136.632 19.2286 136.635 19.2422 136.613 19.2083L129.903 23.5641ZM133.374 26.4928C134.542 26.968 135.768 27.1978 137.018 27.1978V19.1978C136.763 19.1978 136.565 19.1541 136.389 19.0824L133.374 26.4928ZM137.018 27.1978C138.297 27.1978 139.575 26.9763 140.825 26.6043L138.543 18.9367C137.879 19.1343 137.378 19.1978 137.018 19.1978V27.1978ZM140.866 26.5917C142.32 26.1417 143.649 25.4253 144.814 24.4398L139.646 18.3327C139.33 18.6004 138.961 18.8069 138.501 18.9494L140.866 26.5917ZM140.011 24.7144L140.268 24.8853L144.705 18.2289L144.449 18.058L140.011 24.7144ZM138.486 21.5571V26.3252H146.486V21.5571H138.486ZM138.486 26.3252C138.486 25.143 139.005 24.3364 139.171 24.0913C139.392 23.7658 139.611 23.5479 139.714 23.4504C139.927 23.2473 140.11 23.1217 140.153 23.0926C140.267 23.0138 140.333 22.9801 140.278 23.0107C140.197 23.0562 140.01 23.1536 139.679 23.3169L143.209 30.4956C143.572 30.3171 143.907 30.1468 144.173 29.9986C144.292 29.9323 144.488 29.8203 144.69 29.6817C144.775 29.6227 144.991 29.4718 145.226 29.248C145.34 29.1402 145.567 28.9131 145.793 28.5797C145.965 28.3265 146.486 27.5131 146.486 26.3252H138.486ZM139.632 23.3403C139.294 23.512 138.677 23.7495 137.678 24.0067L139.672 31.7541C140.975 31.4188 142.204 31.0069 143.256 30.4722L139.632 23.3403ZM137.714 23.9976C136.933 24.1908 135.976 24.3076 134.813 24.3076V32.3076C136.498 32.3076 138.116 32.1396 139.636 31.7632L137.714 23.9976ZM175.248 21.8477H179.248V17.8477H175.248V21.8477ZM175.248 28V32H179.248V28H175.248ZM160.021 28H156.021V32H160.021V28ZM160.021 21.8477V17.8477H156.021V21.8477H160.021ZM162.823 21.8477V25.8477H166.823V21.8477H162.823ZM162.823 6.82568H166.823V2.82568H162.823V6.82568ZM160.414 6.82568V2.82568H156.992L156.462 6.20554L160.414 6.82568ZM159.679 11.5083V15.5083H163.1L163.63 12.1284L159.679 11.5083ZM154.876 11.5083H150.876V15.5083H154.876V11.5083ZM154.876 0.810059V-3.18994H150.876V0.810059H154.876ZM180.46 0.810059H184.46V-3.18994H180.46V0.810059ZM180.46 11.5083V15.5083H184.46V11.5083H180.46ZM175.675 11.5083L171.723 12.1284L172.254 15.5083H175.675V11.5083ZM174.94 6.82568L178.892 6.20554L178.361 2.82568H174.94V6.82568ZM172.445 6.82568V2.82568H168.445V6.82568H172.445ZM172.445 21.8477H168.445V25.8477H172.445V21.8477ZM171.248 21.8477V28H179.248V21.8477H171.248ZM175.248 24H160.021V32H175.248V24ZM164.021 28V21.8477H156.021V28H164.021ZM160.021 25.8477H162.823V17.8477H160.021V25.8477ZM166.823 21.8477V6.82568H158.823V21.8477H166.823ZM162.823 2.82568H160.414V10.8257H162.823V2.82568ZM156.462 6.20554L155.727 10.8882L163.63 12.1284L164.365 7.44583L156.462 6.20554ZM159.679 7.5083H154.876V15.5083H159.679V7.5083ZM158.876 11.5083V0.810059H150.876V11.5083H158.876ZM154.876 4.81006H180.46V-3.18994H154.876V4.81006ZM176.46 0.810059V11.5083H184.46V0.810059H176.46ZM180.46 7.5083H175.675V15.5083H180.46V7.5083ZM179.626 10.8882L178.892 6.20554L170.988 7.44583L171.723 12.1284L179.626 10.8882ZM174.94 2.82568H172.445V10.8257H174.94V2.82568ZM168.445 6.82568V21.8477H176.445V6.82568H168.445ZM172.445 25.8477H175.248V17.8477H172.445V25.8477ZM186.92 27.1626L188.698 23.5796L188.677 23.5692L188.656 23.559L186.92 27.1626ZM183.28 13.5762L186.675 15.6912L186.679 15.685L186.683 15.6787L183.28 13.5762ZM186.92 10.4146L188.569 14.0587L188.58 14.0538L188.591 14.0487L186.92 10.4146ZM197.823 10.4316L196.12 14.0509L196.13 14.0557L197.823 10.4316ZM201.446 13.6104L198.039 15.7052L198.043 15.7115L198.046 15.7177L201.446 13.6104ZM201.446 23.8472L204.886 25.8893L204.892 25.8794L204.897 25.8694L201.446 23.8472ZM197.789 27.1797L199.525 30.7833L199.536 30.778L197.789 27.1797ZM194.012 22.2065L197.601 23.9733L197.601 23.9726L194.012 22.2065ZM194.012 15.3706L190.434 17.1595L190.453 17.1955L190.471 17.2311L194.012 15.3706ZM190.697 15.3706L194.238 17.2311L194.244 17.2189L194.25 17.2067L190.697 15.3706ZM190.714 22.2065L187.115 23.9516L187.12 23.9625L187.125 23.9733L190.714 22.2065ZM192.337 24.3076C190.754 24.3076 189.58 24.0175 188.698 23.5796L185.142 30.7456C187.336 31.8344 189.773 32.3076 192.337 32.3076V24.3076ZM188.656 23.559C187.788 23.1408 187.174 22.5713 186.719 21.805L179.84 25.8893C181.117 28.0397 182.93 29.6805 185.184 30.7662L188.656 23.559ZM186.719 21.805C186.282 21.0691 185.981 20.0704 185.981 18.6519H177.981C177.981 21.2437 178.546 23.7085 179.84 25.8893L186.719 21.805ZM185.981 18.6519C185.981 17.2425 186.283 16.321 186.675 15.6912L179.885 11.4612C178.545 13.6113 177.981 16.0735 177.981 18.6519H185.981ZM186.683 15.6787C187.113 14.9823 187.702 14.451 188.569 14.0587L185.271 6.77036C183.016 7.79087 181.178 9.36726 179.877 11.4736L186.683 15.6787ZM188.591 14.0487C189.536 13.6141 190.753 13.3379 192.337 13.3379V5.33789C189.82 5.33789 187.425 5.77944 185.249 6.78039L188.591 14.0487ZM192.337 13.3379C193.989 13.3379 195.212 13.6235 196.12 14.0509L199.526 6.81237C197.336 5.78145 194.901 5.33789 192.337 5.33789V13.3379ZM196.13 14.0557C197.024 14.4732 197.617 15.0198 198.039 15.7052L204.854 11.5155C203.566 9.42098 201.744 7.84839 199.516 6.80758L196.13 14.0557ZM198.046 15.7177C198.43 16.3359 198.728 17.2483 198.728 18.6519H206.728C206.728 16.0906 206.172 13.642 204.846 11.503L198.046 15.7177ZM198.728 18.6519C198.728 20.0795 198.428 21.0855 197.995 21.825L204.897 25.8694C206.173 23.6921 206.728 21.2347 206.728 18.6519H198.728ZM198.007 21.805C197.553 22.5688 196.933 23.1489 196.042 23.5814L199.536 30.778C201.79 29.6838 203.607 28.0422 204.886 25.8893L198.007 21.805ZM196.053 23.5761C195.13 24.0207 193.927 24.3076 192.337 24.3076V32.3076C194.895 32.3076 197.326 31.8425 199.525 30.7833L196.053 23.5761ZM192.337 27.3174C193.4 27.3174 194.518 27.045 195.531 26.3731C196.522 25.7155 197.178 24.832 197.601 23.9733L190.424 20.4398C190.482 20.3216 190.676 19.9936 191.109 19.7062C191.564 19.4047 192.027 19.3174 192.337 19.3174V27.3174ZM197.601 23.9726C198.386 22.378 198.542 20.3983 198.542 18.6519H190.542C190.542 19.3487 190.504 19.8501 190.453 20.1899C190.399 20.5558 190.351 20.5878 190.423 20.4405L197.601 23.9726ZM198.542 18.6519C198.542 17.0117 198.382 15.0876 197.553 13.5101L190.471 17.2311C190.377 17.0522 190.413 17.0351 190.461 17.3326C190.505 17.608 190.542 18.0359 190.542 18.6519H198.542ZM197.59 13.5818C197.141 12.6845 196.444 11.8136 195.426 11.1902C194.411 10.5687 193.325 10.3452 192.337 10.3452V18.3452C192.124 18.3452 191.705 18.2926 191.249 18.013C190.789 17.7314 190.541 17.3731 190.434 17.1595L197.59 13.5818ZM192.337 10.3452C191.331 10.3452 190.251 10.5851 189.252 11.2096C188.261 11.8287 187.585 12.6786 187.143 13.5345L194.25 17.2067C194.161 17.379 193.936 17.7163 193.492 17.9936C193.04 18.2762 192.603 18.3452 192.337 18.3452V10.3452ZM187.156 13.5101C186.327 15.0876 186.167 17.0117 186.167 18.6519H194.167C194.167 18.0359 194.204 17.608 194.248 17.3326C194.296 17.0351 194.332 17.0522 194.238 17.2311L187.156 13.5101ZM186.167 18.6519C186.167 20.4111 186.34 22.3535 187.115 23.9516L194.313 20.4614C194.363 20.5633 194.312 20.4996 194.257 20.1457C194.206 19.8102 194.167 19.3225 194.167 18.6519H186.167ZM187.125 23.9733C187.534 24.8037 188.167 25.679 189.134 26.3409C190.133 27.0243 191.252 27.3174 192.337 27.3174V19.3174C192.705 19.3174 193.194 19.4253 193.652 19.7384C194.078 20.0301 194.258 20.3499 194.303 20.4398L187.125 23.9733ZM209.991 27.1284L211.79 23.5559L211.775 23.5481L211.759 23.5404L209.991 27.1284ZM206.368 23.7959L202.9 25.7893L202.906 25.7995L202.912 25.8097L206.368 23.7959ZM206.351 13.73L209.81 15.7385L209.815 15.7297L206.351 13.73ZM209.786 10.4829L211.619 14.0385L209.786 10.4829ZM219.852 10.4146L221.698 6.86616L221.687 6.86023L221.676 6.85438L219.852 10.4146ZM223.099 13.5078L219.628 15.4956L219.634 15.5067L219.641 15.5178L223.099 13.5078ZM223.988 19.9165V23.9165H226.871L227.783 21.1814L223.988 19.9165ZM213.341 19.9165V15.9165H209.341V19.9165H213.341ZM214.554 22.4971L212.05 25.6163L212.064 25.6271L212.077 25.6377L214.554 22.4971ZM220.331 23.0098L221.429 26.8559L221.449 26.8503L221.468 26.8445L220.331 23.0098ZM223.458 21.5913L224.789 17.8193L222.999 17.1877L221.378 18.1745L223.458 21.5913ZM223.749 21.6938H227.749V18.8638L225.08 17.9219L223.749 21.6938ZM223.749 26.291L225.737 29.7619L227.749 28.6095V26.291H223.749ZM220.125 27.812L221.163 31.6752L221.175 31.6719L221.187 31.6686L220.125 27.812ZM213.341 16.9087H209.341V20.9087H213.341V16.9087ZM217.716 16.9087V20.9087H221.716V16.9087H217.716ZM217.152 14.4648L213.745 16.5612L213.769 16.5998L213.794 16.6378L217.152 14.4648ZM213.973 14.4819L217.232 16.801L217.243 16.7863L217.253 16.7716L213.973 14.4819ZM215.511 24.3076C213.886 24.3076 212.687 24.0074 211.79 23.5559L208.192 30.7009C210.417 31.8217 212.898 32.3076 215.511 32.3076V24.3076ZM211.759 23.5404C210.857 23.096 210.253 22.5171 209.824 21.7821L202.912 25.8097C204.17 27.9685 205.98 29.6114 208.223 30.7165L211.759 23.5404ZM209.836 21.8025C209.406 21.0535 209.121 20.071 209.121 18.7202H201.121C201.121 21.2431 201.667 23.6445 202.9 25.7893L209.836 21.8025ZM209.121 18.7202C209.121 17.3895 209.401 16.4436 209.81 15.7385L202.892 11.7214C201.661 13.8419 201.121 16.2228 201.121 18.7202H209.121ZM209.815 15.7297C210.229 15.0133 210.798 14.4614 211.619 14.0385L207.954 6.92735C205.812 8.03107 204.091 9.64396 202.887 11.7303L209.815 15.7297ZM211.619 14.0385C212.432 13.6193 213.518 13.3379 214.999 13.3379V5.33789C212.492 5.33789 210.103 5.81983 207.954 6.92735L211.619 14.0385ZM214.999 13.3379C216.303 13.3379 217.278 13.5902 218.029 13.9747L221.676 6.85438C219.623 5.80331 217.362 5.33789 214.999 5.33789V13.3379ZM218.006 13.9629C218.748 14.3489 219.257 14.8474 219.628 15.4956L226.57 11.5201C225.415 9.50223 223.759 7.9385 221.698 6.86616L218.006 13.9629ZM219.641 15.5178C220.01 16.1523 220.261 16.9927 220.261 18.1733H228.261C228.261 15.7993 227.738 13.5294 226.557 11.4978L219.641 15.5178ZM220.261 18.1733C220.261 18.3876 220.231 18.5392 220.193 18.6516L227.783 21.1814C228.11 20.2 228.261 19.1895 228.261 18.1733H220.261ZM223.988 15.9165H213.341V23.9165H223.988V15.9165ZM209.341 19.9165C209.341 22.1546 210.26 24.1795 212.05 25.6163L217.058 19.3779C217.085 19.3991 217.184 19.4928 217.264 19.6628C217.342 19.8291 217.341 19.9385 217.341 19.9165H209.341ZM212.077 25.6377C213.667 26.8918 215.539 27.4541 217.477 27.4541V19.4541C217.135 19.4541 217.059 19.3784 217.031 19.3564L212.077 25.6377ZM217.477 27.4541C218.792 27.4541 220.119 27.2303 221.429 26.8559L219.232 19.1637C218.469 19.3817 217.893 19.4541 217.477 19.4541V27.4541ZM221.468 26.8445C222.877 26.4267 224.234 25.8018 225.538 25.0081L221.378 18.1745C220.586 18.6568 219.858 18.9776 219.193 19.175L221.468 26.8445ZM222.127 25.3633L222.417 25.4658L225.08 17.9219L224.789 17.8193L222.127 25.3633ZM219.749 21.6938V26.291H227.749V21.6938H219.749ZM221.76 22.8201C220.864 23.3337 219.966 23.7071 219.064 23.9554L221.187 31.6686C222.768 31.2333 224.286 30.5927 225.737 29.7619L221.76 22.8201ZM219.088 23.9489C218.31 24.1578 217.149 24.3076 215.511 24.3076V32.3076C217.565 32.3076 219.48 32.127 221.163 31.6752L219.088 23.9489ZM209.341 16.4131V16.9087H217.341V16.4131H209.341ZM213.341 20.9087H217.716V12.9087H213.341V20.9087ZM221.716 16.9087V16.5498H213.716V16.9087H221.716ZM221.716 16.5498C221.716 15.1026 221.372 13.6234 220.51 12.2918L213.794 16.6378C213.772 16.6046 213.754 16.5709 213.74 16.539C213.726 16.5072 213.718 16.482 213.714 16.4663C213.705 16.4343 213.716 16.4553 213.716 16.5498H221.716ZM220.558 12.3685C219.424 10.5254 217.548 9.57617 215.511 9.57617V17.5762C215.326 17.5762 214.968 17.5349 214.563 17.3155C214.15 17.0915 213.886 16.7897 213.745 16.5612L220.558 12.3685ZM215.511 9.57617C213.306 9.57617 211.677 10.7833 210.693 12.1922L217.253 16.7716C217.211 16.8316 217.045 17.0482 216.704 17.2494C216.335 17.4663 215.912 17.5762 215.511 17.5762V9.57617ZM210.714 12.1629C209.834 13.3993 209.341 14.8469 209.341 16.4131H217.341C217.341 16.4772 217.33 16.5634 217.3 16.6538C217.271 16.7425 217.238 16.7926 217.232 16.801L210.714 12.1629Z" fill="white"/>
</svg>
