<svg width="347" height="44" viewBox="0 0 347 44" fill="none" xmlns="http://www.w3.org/2000/svg">
<path d="M32.0908 33.5078H36.0908V29.5078H32.0908V33.5078ZM32.0908 43V47H36.0908V43H32.0908ZM8.59766 43H4.59766V47H8.59766V43ZM8.59766 33.5078V29.5078H4.59766V33.5078H8.59766ZM12.9219 33.5078V37.5078H16.9219V33.5078H12.9219ZM12.9219 10.3311H16.9219V6.33105H12.9219V10.3311ZM9.2041 10.3311V6.33105H5.78288L5.25247 9.71091L9.2041 10.3311ZM8.07031 17.5557V21.5557H11.4915L12.0219 18.1758L8.07031 17.5557ZM0.661133 17.5557H-3.33887V21.5557H0.661133V17.5557ZM0.661133 1.0498V-2.9502H-3.33887V1.0498H0.661133ZM40.1328 1.0498H44.1328V-2.9502H40.1328V1.0498ZM40.1328 17.5557V21.5557H44.1328V17.5557H40.1328ZM32.75 17.5557L28.7984 18.1758L29.3288 21.5557H32.75V17.5557ZM31.6162 10.3311L35.5678 9.71091L35.0374 6.33105H31.6162V10.3311ZM27.7666 10.3311V6.33105H23.7666V10.3311H27.7666ZM27.7666 33.5078H23.7666V37.5078H27.7666V33.5078ZM28.0908 33.5078V43H36.0908V33.5078H28.0908ZM32.0908 39H8.59766V47H32.0908V39ZM12.5977 43V33.5078H4.59766V43H12.5977ZM8.59766 37.5078H12.9219V29.5078H8.59766V37.5078ZM16.9219 33.5078V10.3311H8.92188V33.5078H16.9219ZM12.9219 6.33105H9.2041V14.3311H12.9219V6.33105ZM5.25247 9.71091L4.11868 16.9355L12.0219 18.1758L13.1557 10.9512L5.25247 9.71091ZM8.07031 13.5557H0.661133V21.5557H8.07031V13.5557ZM4.66113 17.5557V1.0498H-3.33887V17.5557H4.66113ZM0.661133 5.0498H40.1328V-2.9502H0.661133V5.0498ZM36.1328 1.0498V17.5557H44.1328V1.0498H36.1328ZM40.1328 13.5557H32.75V21.5557H40.1328V13.5557ZM36.7016 16.9355L35.5678 9.71091L27.6646 10.9512L28.7984 18.1758L36.7016 16.9355ZM31.6162 6.33105H27.7666V14.3311H31.6162V6.33105ZM23.7666 10.3311V33.5078H31.7666V10.3311H23.7666ZM27.7666 37.5078H32.0908V29.5078H27.7666V37.5078ZM48.7021 10.4365L46.3471 13.6697L48.7021 10.4365ZM59.6182 1.49805L57.3049 4.76133L57.3146 4.76818L57.3243 4.77497L59.6182 1.49805ZM59.5654 10.4365L57.2293 7.18964L57.2198 7.19644L57.2104 7.20331L59.5654 10.4365ZM63.8369 35.0635H67.8369V31.0635H63.8369V35.0635ZM63.8369 43V47H67.8369V43H63.8369ZM44.4043 43H40.4043V47H44.4043V43ZM44.4043 35.0635V31.0635H40.4043V35.0635H44.4043ZM47.8057 35.0635V39.0635H51.8057V35.0635H47.8057ZM47.8057 22.9082H51.8057V18.9082H47.8057V22.9082ZM44.4043 22.9082H40.4043V26.9082H44.4043V22.9082ZM44.4043 16.4219L43.992 12.4432L40.4043 12.8149V16.4219H44.4043ZM60.4355 14.7607H64.4355V10.3249L60.0233 10.782L60.4355 14.7607ZM60.4355 35.0635H56.4355V39.0635H60.4355V35.0635ZM54.1338 7.99219C52.571 7.99219 51.6435 7.63033 51.0572 7.20331L46.3471 13.6697C48.6085 15.3169 51.3021 15.9922 54.1338 15.9922V7.99219ZM51.0572 7.20331C50.7894 7.00826 50.5664 6.78601 50.5664 5.9541H42.5664C42.5664 9.02454 43.7672 11.7906 46.3471 13.6697L51.0572 7.20331ZM50.5664 5.9541C50.5664 5.12218 50.7859 4.94923 51.0041 4.79564L46.4002 -1.74681C43.7708 0.103504 42.5664 2.88368 42.5664 5.9541H50.5664ZM51.0041 4.79564C51.5861 4.3861 52.5458 4.02148 54.1865 4.02148V-3.97852C51.3624 -3.97852 48.6659 -3.34118 46.4002 -1.74681L51.0041 4.79564ZM54.1865 4.02148C55.8464 4.02148 56.775 4.38569 57.3049 4.76133L61.9314 -1.76524C59.684 -3.35835 56.9915 -3.97852 54.1865 -3.97852V4.02148ZM57.3243 4.77497C57.4813 4.88489 57.7275 5.0368 57.7275 5.9541H65.7275C65.7275 2.89875 64.5675 0.0799569 61.912 -1.77888L57.3243 4.77497ZM57.7275 5.9541C57.7275 6.76625 57.5115 6.98657 57.2293 7.18964L61.9016 13.6834C64.5022 11.8123 65.7275 9.04429 65.7275 5.9541H57.7275ZM57.2104 7.20331C56.6241 7.63033 55.6966 7.99219 54.1338 7.99219V15.9922C56.9655 15.9922 59.6591 15.3169 61.9205 13.6697L57.2104 7.20331ZM59.8369 35.0635V43H67.8369V35.0635H59.8369ZM63.8369 39H44.4043V47H63.8369V39ZM48.4043 43V35.0635H40.4043V43H48.4043ZM44.4043 39.0635H47.8057V31.0635H44.4043V39.0635ZM51.8057 35.0635V22.9082H43.8057V35.0635H51.8057ZM47.8057 18.9082H44.4043V26.9082H47.8057V18.9082ZM48.4043 22.9082V16.4219H40.4043V22.9082H48.4043ZM44.8166 20.4006L60.8478 18.7394L60.0233 10.782L43.992 12.4432L44.8166 20.4006ZM56.4355 14.7607V35.0635H64.4355V14.7607H56.4355ZM60.4355 39.0635H63.8369V31.0635H60.4355V39.0635ZM74.832 41.6289L76.6626 38.0724L76.647 38.0643L76.6313 38.0564L74.832 41.6289ZM68.8994 21.2207L72.4539 23.0553L72.4598 23.0439L72.4655 23.0325L68.8994 21.2207ZM73.6455 16.0791L71.5833 12.6517L71.5768 12.6556L71.5704 12.6595L73.6455 16.0791ZM84.166 14.6025L83.2795 18.5031L83.3077 18.5095L83.336 18.5155L84.166 14.6025ZM87.2773 15.71L85.3809 19.2318L85.3949 19.2393L85.4089 19.2467L87.2773 15.71ZM89.123 17.5557L85.4153 19.0564L89.2075 28.4255L92.8537 18.9987L89.123 17.5557ZM90.2041 14.7607V10.7607H87.4625L86.4734 13.3178L90.2041 14.7607ZM95.9521 14.7607H99.9521V10.7607H95.9521V14.7607ZM95.9521 26.415V30.415H99.9521V26.415H95.9521ZM88.332 26.415L84.3519 26.8131L84.7121 30.415H88.332V26.415ZM81.0811 23.3828L84.1539 25.9436L84.1655 25.9297L84.1769 25.9158L81.0811 23.3828ZM80.8438 32.7959L77.4452 34.9053L77.4666 34.9398L77.4886 34.9738L80.8438 32.7959ZM83.3486 34.958L81.7653 38.6313L81.8032 38.6476L81.8414 38.6632L83.3486 34.958ZM90.7578 34.9316L91.8988 38.7654L91.9197 38.7592L91.9405 38.7528L90.7578 34.9316ZM94.6865 32.7959L96.9053 29.4677L94.4007 27.7979L92.1028 29.7424L94.6865 32.7959ZM95.082 33.0596H99.082V30.9188L97.3008 29.7314L95.082 33.0596ZM93.4736 41.3125L91.7084 37.7231L91.6848 37.7347L91.6614 37.7466L93.4736 41.3125ZM89.2021 42.8154L90.1632 46.6983L90.1813 46.6938L90.1993 46.6891L89.2021 42.8154ZM83.2432 39.4746C80.539 39.4746 78.3861 38.9594 76.6626 38.0724L73.0015 45.1854C76.0592 46.7593 79.5137 47.4746 83.2432 47.4746V39.4746ZM76.6313 38.0564C74.8744 37.1716 73.58 35.9641 72.6482 34.4069L65.7835 38.5149C67.5235 41.4226 69.9732 43.6605 73.0328 45.2014L76.6313 38.0564ZM72.6482 34.4069C71.7404 32.8899 71.2119 30.9961 71.2119 28.5771H63.2119C63.2119 32.205 64.0194 35.5671 65.7835 38.5149L72.6482 34.4069ZM71.2119 28.5771C71.2119 26.4191 71.6529 24.6072 72.4539 23.0553L65.3449 19.3861C63.8959 22.1936 63.2119 25.286 63.2119 28.5771H71.2119ZM72.4655 23.0325C73.2412 21.5058 74.3119 20.3536 75.7207 19.4987L71.5704 12.6595C68.8658 14.3007 66.7724 16.5763 65.3333 19.4089L72.4655 23.0325ZM75.7078 19.5065C77.0799 18.6809 78.7559 18.207 80.8701 18.207V10.207C77.4999 10.207 74.3595 10.9812 71.5833 12.6517L75.7078 19.5065ZM80.8701 18.207C81.5691 18.207 82.3686 18.296 83.2795 18.5031L85.0525 10.702C83.6431 10.3817 82.2454 10.207 80.8701 10.207V18.207ZM83.336 18.5155C84.1758 18.6936 84.8456 18.9436 85.3809 19.2318L89.1737 12.1881C87.8809 11.4919 86.4765 11.0036 84.996 10.6896L83.336 18.5155ZM85.4089 19.2467C85.593 19.344 85.6365 19.3964 85.6091 19.369C85.594 19.3539 85.5624 19.3194 85.5247 19.2637C85.4866 19.2072 85.448 19.1374 85.4153 19.0564L92.8308 16.0549C92.0776 14.1941 90.6393 12.9622 89.1458 12.1732L85.4089 19.2467ZM92.8537 18.9987L93.9348 16.2037L86.4734 13.3178L85.3924 16.1127L92.8537 18.9987ZM90.2041 18.7607H95.9521V10.7607H90.2041V18.7607ZM91.9521 14.7607V26.415H99.9521V14.7607H91.9521ZM95.9521 22.415H88.332V30.415H95.9521V22.415ZM92.3122 26.017C92.1176 24.0716 91.502 22.0992 90.1155 20.4994L84.07 25.7389C84.0705 25.7395 84.0807 25.7511 84.0978 25.7806C84.1153 25.8106 84.1421 25.8628 84.1727 25.9442C84.2352 26.1104 84.3093 26.3876 84.3519 26.8131L92.3122 26.017ZM90.1155 20.4994C88.6935 18.8586 86.7498 17.9326 84.5352 17.9326V25.9326C84.5135 25.9326 84.4006 25.9249 84.2559 25.8578C84.1138 25.7919 84.0551 25.7216 84.07 25.7389L90.1155 20.4994ZM84.5352 17.9326C82.102 17.9326 79.6962 18.7587 77.9852 20.8499L84.1769 25.9158C84.1769 25.9158 84.1766 25.9161 84.1761 25.9167C84.1756 25.9173 84.1748 25.9182 84.1738 25.9193C84.1717 25.9216 84.1687 25.9246 84.1649 25.9283C84.1569 25.936 84.1468 25.9447 84.1349 25.9536C84.1091 25.9729 84.0895 25.982 84.0863 25.9833C84.08 25.9859 84.2017 25.9326 84.5352 25.9326V17.9326ZM78.0082 20.8221C76.2437 22.9395 75.8945 25.9746 75.8945 28.6299H83.8945C83.8945 27.539 83.9814 26.7809 84.0927 26.2887C84.2093 25.7728 84.3046 25.7627 84.1539 25.9436L78.0082 20.8221ZM75.8945 28.6299C75.8945 30.8073 76.277 33.0233 77.4452 34.9053L84.2423 30.6864C84.1449 30.5295 83.8945 29.9681 83.8945 28.6299H75.8945ZM77.4886 34.9738C78.5348 36.5855 79.9648 37.8552 81.7653 38.6313L84.932 31.2847C84.6934 31.1819 84.4535 31.0102 84.1989 30.618L77.4886 34.9738ZM81.8414 38.6632C83.3745 39.2868 84.9867 39.5908 86.6445 39.5908V31.5908C85.982 31.5908 85.3969 31.4729 84.8558 31.2528L81.8414 38.6632ZM86.6445 39.5908C88.3697 39.5908 90.1293 39.2921 91.8988 38.7654L89.6168 31.0978C88.4332 31.4501 87.4506 31.5908 86.6445 31.5908V39.5908ZM91.9405 38.7528C93.9138 38.142 95.7036 37.1751 97.2703 35.8494L92.1028 29.7424C91.3843 30.3502 90.555 30.8072 89.5751 31.1105L91.9405 38.7528ZM92.4677 36.1241L92.8632 36.3878L97.3008 29.7314L96.9053 29.4677L92.4677 36.1241ZM91.082 33.0596V40.416H99.082V33.0596H91.082ZM91.082 40.416C91.082 39.7896 91.2289 39.2851 91.3616 38.9502C91.4953 38.6127 91.6508 38.3557 91.7646 38.1877C91.9837 37.8644 92.2011 37.649 92.3007 37.5543C92.5084 37.3568 92.6825 37.238 92.7131 37.217C92.8039 37.1545 92.8345 37.1421 92.7325 37.1989C92.5566 37.297 92.2289 37.4671 91.7084 37.7231L95.2389 44.9019C95.7907 44.6305 96.2671 44.3876 96.6274 44.1868C96.7934 44.0943 97.0251 43.961 97.2499 43.8062C97.3475 43.739 97.5719 43.5813 97.8131 43.3519C97.9295 43.2413 98.1594 43.0117 98.3869 42.6761C98.5599 42.4208 99.082 41.6054 99.082 40.416H91.082ZM91.6614 37.7466C90.9463 38.11 89.8287 38.5237 88.205 38.9417L90.1993 46.6891C92.1264 46.1931 93.8564 45.6049 95.2858 44.8784L91.6614 37.7466ZM88.2411 38.9326C86.8356 39.2805 85.1792 39.4746 83.2432 39.4746V47.4746C85.7017 47.4746 88.0179 47.2293 90.1632 46.6983L88.2411 38.9326ZM145.628 33.5078H149.628V29.5078H145.628V33.5078ZM145.628 43V47H149.628V43H145.628ZM122.135 43H118.135V47H122.135V43ZM122.135 33.5078V29.5078H118.135V33.5078H122.135ZM126.459 33.5078V37.5078H130.459V33.5078H126.459ZM126.459 10.3311H130.459V6.33105H126.459V10.3311ZM122.741 10.3311V6.33105H119.32L118.79 9.71091L122.741 10.3311ZM121.607 17.5557V21.5557H125.029L125.559 18.1758L121.607 17.5557ZM114.198 17.5557H110.198V21.5557H114.198V17.5557ZM114.198 1.0498V-2.9502H110.198V1.0498H114.198ZM153.67 1.0498H157.67V-2.9502H153.67V1.0498ZM153.67 17.5557V21.5557H157.67V17.5557H153.67ZM146.287 17.5557L142.335 18.1758L142.866 21.5557H146.287V17.5557ZM145.153 10.3311L149.105 9.71091L148.575 6.33105H145.153V10.3311ZM141.304 10.3311V6.33105H137.304V10.3311H141.304ZM141.304 33.5078H137.304V37.5078H141.304V33.5078ZM141.628 33.5078V43H149.628V33.5078H141.628ZM145.628 39H122.135V47H145.628V39ZM126.135 43V33.5078H118.135V43H126.135ZM122.135 37.5078H126.459V29.5078H122.135V37.5078ZM130.459 33.5078V10.3311H122.459V33.5078H130.459ZM126.459 6.33105H122.741V14.3311H126.459V6.33105ZM118.79 9.71091L117.656 16.9355L125.559 18.1758L126.693 10.9512L118.79 9.71091ZM121.607 13.5557H114.198V21.5557H121.607V13.5557ZM118.198 17.5557V1.0498H110.198V17.5557H118.198ZM114.198 5.0498H153.67V-2.9502H114.198V5.0498ZM149.67 1.0498V17.5557H157.67V1.0498H149.67ZM153.67 13.5557H146.287V21.5557H153.67V13.5557ZM150.239 16.9355L149.105 9.71091L141.202 10.9512L142.335 18.1758L150.239 16.9355ZM145.153 6.33105H141.304V14.3311H145.153V6.33105ZM137.304 10.3311V33.5078H145.304V10.3311H137.304ZM141.304 37.5078H145.628V29.5078H141.304V37.5078ZM160.921 42.4199L162.657 38.8165L162.631 38.804L162.605 38.7919L160.921 42.4199ZM157.625 30.1592L154.531 27.6239L154.514 27.6446L154.497 27.6656L157.625 30.1592ZM161.686 27.3115L160.281 23.5662L160.268 23.5711L161.686 27.3115ZM173.788 27.3906L172.561 31.1978L177.788 32.8825V27.3906H173.788ZM171.995 22.9873L169.871 26.3765L169.882 26.3835L169.893 26.3905L171.995 22.9873ZM158.495 24.3057L156.966 28.0017L158.834 28.7749L160.565 27.7286L158.495 24.3057ZM157.73 23.9893H153.73V26.663L156.201 27.6853L157.73 23.9893ZM157.73 16.3164L156.391 12.5473L153.73 13.4928V16.3164H157.73ZM164.243 14.708L164.809 18.6678L164.824 18.6656L164.84 18.6633L164.243 14.708ZM186.471 35.0635H182.471V39.0635H186.471V35.0635ZM188.949 35.0635H192.949V31.0635H188.949V35.0635ZM188.949 43V47H192.949V43H188.949ZM175.449 43L171.592 44.0584L172.399 47H175.449V43ZM174.263 38.6758L178.12 37.6173L175.395 27.6857L170.702 36.8531L174.263 38.6758ZM172.522 36.4346L171.323 32.6186L171.307 32.6236L171.291 32.6288L172.522 36.4346ZM173.788 35.8281L176.501 38.7673L177.788 37.5794V35.8281H173.788ZM173.788 31.3984H177.788V27.8964L174.317 27.4335L173.788 31.3984ZM172.522 31.082L173.682 27.2539L173.615 27.2334L173.546 27.2152L172.522 31.082ZM168.726 31.7148L165.854 28.9303L165.832 28.953L165.81 28.9761L168.726 31.7148ZM168.673 35.9336L165.752 38.6662L165.797 38.7149L165.844 38.762L168.673 35.9336ZM165.799 39.4746C164.542 39.4746 163.519 39.2318 162.657 38.8165L159.184 46.0233C161.241 47.0143 163.47 47.4746 165.799 47.4746V39.4746ZM162.605 38.7919C161.763 38.4006 161.158 37.8765 160.702 37.201L154.073 41.6799C155.375 43.606 157.126 45.0681 159.236 46.048L162.605 38.7919ZM160.702 37.201C160.313 36.6257 160.069 35.9108 160.069 34.9053H152.069C152.069 37.345 152.704 39.6536 154.073 41.6799L160.702 37.201ZM160.069 34.9053C160.069 33.833 160.348 33.1602 160.753 32.6528L154.497 27.6656C152.828 29.7598 152.069 32.251 152.069 34.9053H160.069ZM160.719 32.6945C161.272 32.0191 162.026 31.46 163.103 31.052L160.268 23.5711C158.005 24.4286 156.052 25.768 154.531 27.6239L160.719 32.6945ZM163.09 31.0568C164.293 30.6059 165.632 30.3623 167.144 30.3623V22.3623C164.753 22.3623 162.453 22.7516 160.281 23.5662L163.09 31.0568ZM167.144 30.3623C169.043 30.3623 170.843 30.6439 172.561 31.1978L175.015 23.5835C172.48 22.7663 169.85 22.3623 167.144 22.3623V30.3623ZM177.788 27.3906V26.2041H169.788V27.3906H177.788ZM177.788 26.2041C177.788 23.4127 176.474 21.0519 174.097 19.5841L169.893 26.3905C169.95 26.4256 169.957 26.4383 169.937 26.4182C169.916 26.3962 169.88 26.3537 169.846 26.2926C169.812 26.2316 169.795 26.1792 169.787 26.1497C169.781 26.1228 169.788 26.1363 169.788 26.2041H177.788ZM174.12 19.5982C172.078 18.3186 169.647 17.8799 167.196 17.8799V25.8799C168.788 25.8799 169.556 26.1795 169.871 26.3765L174.12 19.5982ZM167.196 17.8799C166.018 17.8799 164.786 18.0232 163.524 18.2715L165.068 26.1211C165.95 25.9475 166.652 25.8799 167.196 25.8799V17.8799ZM163.524 18.2715C162.253 18.5216 161.01 18.8661 159.796 19.3053L162.52 26.8275C163.346 26.5284 164.195 26.2929 165.068 26.1211L163.524 18.2715ZM159.796 19.3053C158.584 19.7444 157.449 20.2636 156.425 20.8827L160.565 27.7286C161.053 27.4337 161.694 27.1267 162.52 26.8275L159.796 19.3053ZM160.025 20.6096L159.26 20.2932L156.201 27.6853L156.966 28.0017L160.025 20.6096ZM161.73 23.9893V16.3164H153.73V23.9893H161.73ZM159.07 20.0855C160.948 19.418 162.86 18.9462 164.809 18.6678L163.677 10.7482C161.197 11.1026 158.767 11.7031 156.391 12.5473L159.07 20.0855ZM164.84 18.6633C166.889 18.3542 168.753 18.207 170.439 18.207V10.207C168.294 10.207 166.027 10.3938 163.647 10.7527L164.84 18.6633ZM170.439 18.207C175.539 18.207 178.723 18.947 180.502 19.9477C181.945 20.7597 182.471 21.6992 182.471 23.2246H190.471C190.471 18.7383 188.324 15.169 184.424 12.9751C180.859 10.97 176.027 10.207 170.439 10.207V18.207ZM182.471 23.2246V35.0635H190.471V23.2246H182.471ZM186.471 39.0635H188.949V31.0635H186.471V39.0635ZM184.949 35.0635V43H192.949V35.0635H184.949ZM188.949 39H175.449V47H188.949V39ZM179.307 41.9416L178.12 37.6173L170.405 39.7342L171.592 44.0584L179.307 41.9416ZM170.702 36.8531C170.351 37.5389 169.79 38.1456 168.833 38.6607L172.626 45.7045C174.868 44.4969 176.663 42.7658 177.823 40.4985L170.702 36.8531ZM168.833 38.6607C167.77 39.2329 166.774 39.4746 165.799 39.4746V47.4746C168.198 47.4746 170.489 46.855 172.626 45.7045L168.833 38.6607ZM170.756 40.7246C171.787 40.7246 172.791 40.5518 173.754 40.2403L171.291 32.6288C171.058 32.7041 170.885 32.7246 170.756 32.7246V40.7246ZM173.722 40.2505C174.422 40.0304 175.58 39.6175 176.501 38.7673L171.075 32.8889C171.23 32.7461 171.361 32.6559 171.436 32.6082C171.513 32.559 171.563 32.5348 171.572 32.5307C171.582 32.5256 171.512 32.5592 171.323 32.6186L173.722 40.2505ZM177.788 35.8281V31.3984H169.788V35.8281H177.788ZM174.317 27.4335C174.366 27.4402 174.386 27.4448 174.364 27.4405C174.346 27.4367 174.307 27.4281 174.244 27.4124C174.116 27.3804 173.932 27.3296 173.682 27.2539L171.362 34.9101C171.956 35.0899 172.647 35.2817 173.259 35.3633L174.317 27.4335ZM173.546 27.2152C172.738 27.0014 171.86 26.8447 170.967 26.8447V34.8447C170.95 34.8447 170.985 34.8436 171.082 34.8583C171.177 34.8729 171.315 34.9001 171.499 34.9489L173.546 27.2152ZM170.967 26.8447C169.133 26.8447 167.287 27.4527 165.854 28.9303L171.597 34.4994C171.481 34.6195 171.324 34.7258 171.155 34.7911C170.999 34.8519 170.917 34.8447 170.967 34.8447V26.8447ZM165.81 28.9761C164.425 30.4506 163.908 32.2815 163.908 34.0352H171.908C171.908 33.9253 171.924 33.95 171.885 34.059C171.843 34.1804 171.761 34.326 171.641 34.4535L165.81 28.9761ZM163.908 34.0352C163.908 35.8096 164.576 37.4092 165.752 38.6662L171.594 33.201C171.645 33.2551 171.736 33.3732 171.81 33.5558C171.884 33.7409 171.908 33.9127 171.908 34.0352H163.908ZM165.844 38.762C167.239 40.1567 169.012 40.7246 170.756 40.7246V32.7246C170.734 32.7246 170.836 32.7218 171.009 32.7874C171.193 32.8571 171.367 32.9707 171.501 33.1052L165.844 38.762ZM200.129 41.6289L201.959 38.0724L201.944 38.0643L201.928 38.0564L200.129 41.6289ZM194.196 21.2207L197.751 23.0553L197.757 23.0439L197.762 23.0325L194.196 21.2207ZM198.942 16.0791L196.88 12.6517L196.874 12.6556L196.867 12.6595L198.942 16.0791ZM209.463 14.6025L208.576 18.5031L208.605 18.5095L208.633 18.5155L209.463 14.6025ZM212.574 15.71L210.678 19.2318L210.692 19.2393L210.706 19.2467L212.574 15.71ZM214.42 17.5557L210.712 19.0564L214.504 28.4255L218.151 18.9987L214.42 17.5557ZM215.501 14.7607V10.7607H212.759L211.77 13.3178L215.501 14.7607ZM221.249 14.7607H225.249V10.7607H221.249V14.7607ZM221.249 26.415V30.415H225.249V26.415H221.249ZM213.629 26.415L209.649 26.8131L210.009 30.415H213.629V26.415ZM206.378 23.3828L209.451 25.9436L209.462 25.9297L209.474 25.9158L206.378 23.3828ZM206.141 32.7959L202.742 34.9053L202.763 34.9398L202.786 34.9738L206.141 32.7959ZM208.646 34.958L207.062 38.6313L207.1 38.6476L207.138 38.6632L208.646 34.958ZM216.055 34.9316L217.196 38.7654L217.217 38.7592L217.237 38.7528L216.055 34.9316ZM219.983 32.7959L222.202 29.4677L219.698 27.7979L217.4 29.7424L219.983 32.7959ZM220.379 33.0596H224.379V30.9188L222.598 29.7314L220.379 33.0596ZM218.771 41.3125L217.005 37.7231L216.982 37.7347L216.958 37.7466L218.771 41.3125ZM214.499 42.8154L215.46 46.6983L215.478 46.6938L215.496 46.6891L214.499 42.8154ZM208.54 39.4746C205.836 39.4746 203.683 38.9594 201.959 38.0724L198.298 45.1854C201.356 46.7593 204.811 47.4746 208.54 47.4746V39.4746ZM201.928 38.0564C200.171 37.1716 198.877 35.9641 197.945 34.4069L191.08 38.5149C192.82 41.4226 195.27 43.6605 198.33 45.2014L201.928 38.0564ZM197.945 34.4069C197.037 32.8899 196.509 30.9961 196.509 28.5771H188.509C188.509 32.205 189.316 35.5671 191.08 38.5149L197.945 34.4069ZM196.509 28.5771C196.509 26.4191 196.95 24.6072 197.751 23.0553L190.642 19.3861C189.193 22.1936 188.509 25.286 188.509 28.5771H196.509ZM197.762 23.0325C198.538 21.5058 199.609 20.3536 201.018 19.4987L196.867 12.6595C194.163 14.3007 192.069 16.5763 190.63 19.4089L197.762 23.0325ZM201.005 19.5065C202.377 18.6809 204.053 18.207 206.167 18.207V10.207C202.797 10.207 199.656 10.9812 196.88 12.6517L201.005 19.5065ZM206.167 18.207C206.866 18.207 207.665 18.296 208.576 18.5031L210.349 10.702C208.94 10.3817 207.542 10.207 206.167 10.207V18.207ZM208.633 18.5155C209.473 18.6936 210.143 18.9436 210.678 19.2318L214.471 12.1881C213.178 11.4919 211.773 11.0036 210.293 10.6896L208.633 18.5155ZM210.706 19.2467C210.89 19.344 210.933 19.3964 210.906 19.369C210.891 19.3539 210.859 19.3194 210.822 19.2637C210.783 19.2072 210.745 19.1374 210.712 19.0564L218.128 16.0549C217.375 14.1941 215.936 12.9622 214.443 12.1732L210.706 19.2467ZM218.151 18.9987L219.232 16.2037L211.77 13.3178L210.689 16.1127L218.151 18.9987ZM215.501 18.7607H221.249V10.7607H215.501V18.7607ZM217.249 14.7607V26.415H225.249V14.7607H217.249ZM221.249 22.415H213.629V30.415H221.249V22.415ZM217.609 26.017C217.415 24.0716 216.799 22.0992 215.412 20.4994L209.367 25.7389C209.367 25.7395 209.378 25.7511 209.395 25.7806C209.412 25.8106 209.439 25.8628 209.47 25.9442C209.532 26.1104 209.606 26.3876 209.649 26.8131L217.609 26.017ZM215.412 20.4994C213.99 18.8586 212.047 17.9326 209.832 17.9326V25.9326C209.81 25.9326 209.697 25.9249 209.553 25.8578C209.411 25.7919 209.352 25.7216 209.367 25.7389L215.412 20.4994ZM209.832 17.9326C207.399 17.9326 204.993 18.7587 203.282 20.8499L209.474 25.9158C209.474 25.9158 209.474 25.9161 209.473 25.9167C209.472 25.9173 209.472 25.9182 209.471 25.9193C209.469 25.9216 209.466 25.9246 209.462 25.9283C209.454 25.936 209.444 25.9447 209.432 25.9536C209.406 25.9729 209.386 25.982 209.383 25.9833C209.377 25.9859 209.499 25.9326 209.832 25.9326V17.9326ZM203.305 20.8221C201.541 22.9395 201.191 25.9746 201.191 28.6299H209.191C209.191 27.539 209.278 26.7809 209.39 26.2887C209.506 25.7728 209.602 25.7627 209.451 25.9436L203.305 20.8221ZM201.191 28.6299C201.191 30.8073 201.574 33.0233 202.742 34.9053L209.539 30.6864C209.442 30.5295 209.191 29.9681 209.191 28.6299H201.191ZM202.786 34.9738C203.832 36.5855 205.262 37.8552 207.062 38.6313L210.229 31.2847C209.99 31.1819 209.75 31.0102 209.496 30.618L202.786 34.9738ZM207.138 38.6632C208.671 39.2868 210.284 39.5908 211.941 39.5908V31.5908C211.279 31.5908 210.694 31.4729 210.153 31.2528L207.138 38.6632ZM211.941 39.5908C213.667 39.5908 215.426 39.2921 217.196 38.7654L214.914 31.0978C213.73 31.4501 212.748 31.5908 211.941 31.5908V39.5908ZM217.237 38.7528C219.211 38.142 221 37.1751 222.567 35.8494L217.4 29.7424C216.681 30.3502 215.852 30.8072 214.872 31.1105L217.237 38.7528ZM217.765 36.1241L218.16 36.3878L222.598 29.7314L222.202 29.4677L217.765 36.1241ZM216.379 33.0596V40.416H224.379V33.0596H216.379ZM216.379 40.416C216.379 39.7896 216.526 39.2851 216.658 38.9502C216.792 38.6127 216.948 38.3557 217.061 38.1877C217.281 37.8644 217.498 37.649 217.598 37.5543C217.805 37.3568 217.979 37.238 218.01 37.217C218.101 37.1545 218.131 37.1421 218.029 37.1989C217.854 37.297 217.526 37.4671 217.005 37.7231L220.536 44.9019C221.088 44.6305 221.564 44.3876 221.924 44.1868C222.09 44.0943 222.322 43.961 222.547 43.8062C222.644 43.739 222.869 43.5813 223.11 43.3519C223.226 43.2413 223.456 43.0117 223.684 42.6761C223.857 42.4208 224.379 41.6054 224.379 40.416H216.379ZM216.958 37.7466C216.243 38.11 215.126 38.5237 213.502 38.9417L215.496 46.6891C217.423 46.1931 219.153 45.6049 220.583 44.8784L216.958 37.7466ZM213.538 38.9326C212.132 39.2805 210.476 39.4746 208.54 39.4746V47.4746C210.999 47.4746 213.315 47.2293 215.46 46.6983L213.538 38.9326ZM270.925 33.5078H274.925V29.5078H270.925V33.5078ZM270.925 43V47H274.925V43H270.925ZM247.432 43H243.432V47H247.432V43ZM247.432 33.5078V29.5078H243.432V33.5078H247.432ZM251.756 33.5078V37.5078H255.756V33.5078H251.756ZM251.756 10.3311H255.756V6.33105H251.756V10.3311ZM248.038 10.3311V6.33105H244.617L244.086 9.71091L248.038 10.3311ZM246.904 17.5557V21.5557H250.326L250.856 18.1758L246.904 17.5557ZM239.495 17.5557H235.495V21.5557H239.495V17.5557ZM239.495 1.0498V-2.9502H235.495V1.0498H239.495ZM278.967 1.0498H282.967V-2.9502H278.967V1.0498ZM278.967 17.5557V21.5557H282.967V17.5557H278.967ZM271.584 17.5557L267.632 18.1758L268.163 21.5557H271.584V17.5557ZM270.45 10.3311L274.402 9.71091L273.871 6.33105H270.45V10.3311ZM266.601 10.3311V6.33105H262.601V10.3311H266.601ZM266.601 33.5078H262.601V37.5078H266.601V33.5078ZM266.925 33.5078V43H274.925V33.5078H266.925ZM270.925 39H247.432V47H270.925V39ZM251.432 43V33.5078H243.432V43H251.432ZM247.432 37.5078H251.756V29.5078H247.432V37.5078ZM255.756 33.5078V10.3311H247.756V33.5078H255.756ZM251.756 6.33105H248.038V14.3311H251.756V6.33105ZM244.086 9.71091L242.953 16.9355L250.856 18.1758L251.99 10.9512L244.086 9.71091ZM246.904 13.5557H239.495V21.5557H246.904V13.5557ZM243.495 17.5557V1.0498H235.495V17.5557H243.495ZM239.495 5.0498H278.967V-2.9502H239.495V5.0498ZM274.967 1.0498V17.5557H282.967V1.0498H274.967ZM278.967 13.5557H271.584V21.5557H278.967V13.5557ZM275.536 16.9355L274.402 9.71091L266.499 10.9512L267.632 18.1758L275.536 16.9355ZM270.45 6.33105H266.601V14.3311H270.45V6.33105ZM262.601 10.3311V33.5078H270.601V10.3311H262.601ZM266.601 37.5078H270.925V29.5078H266.601V37.5078ZM288.934 41.708L290.712 38.125L290.691 38.1146L290.67 38.1044L288.934 41.708ZM283.317 20.7461L286.712 22.8611L286.716 22.8549L286.72 22.8487L283.317 20.7461ZM288.934 15.8682L290.583 19.5124L290.594 19.5074L290.605 19.5023L288.934 15.8682ZM305.756 15.8945L304.053 19.5138L304.063 19.5186L305.756 15.8945ZM311.346 20.7988L307.938 22.8937L307.942 22.8999L307.946 22.9062L311.346 20.7988ZM311.346 36.5928L314.785 38.6349L314.791 38.625L314.797 38.615L311.346 36.5928ZM305.703 41.7344L307.439 45.338L307.45 45.3327L305.703 41.7344ZM299.876 34.0615L303.465 35.8283L303.465 35.8276L299.876 34.0615ZM299.876 23.5146L296.298 25.3035L296.316 25.3395L296.335 25.3752L299.876 23.5146ZM294.761 23.5146L298.302 25.3752L298.308 25.363L298.314 25.3507L294.761 23.5146ZM294.787 34.0615L291.188 35.8066L291.193 35.8175L291.198 35.8283L294.787 34.0615ZM297.292 39.4746C294.583 39.4746 292.429 38.9773 290.712 38.125L287.155 45.291C290.184 46.7942 293.602 47.4746 297.292 47.4746V39.4746ZM290.67 38.1044C288.954 37.278 287.682 36.1086 286.757 34.5506L279.878 38.6349C281.625 41.577 284.097 43.8177 287.198 45.3116L290.67 38.1044ZM286.757 34.5506C285.85 33.0231 285.313 31.0843 285.313 28.5771H277.313C277.313 32.2575 278.113 35.6625 279.878 38.6349L286.757 34.5506ZM285.313 28.5771C285.313 26.0855 285.85 24.2454 286.712 22.8611L279.922 18.6311C278.113 21.5358 277.313 24.9165 277.313 28.5771H285.313ZM286.72 22.8487C287.621 21.3915 288.869 20.2881 290.583 19.5124L287.284 12.224C284.182 13.6279 281.686 15.7764 279.915 18.6435L286.72 22.8487ZM290.605 19.5023C292.397 18.6781 294.595 18.207 297.292 18.207V10.207C293.661 10.207 290.286 10.8434 287.262 12.234L290.605 19.5023ZM297.292 18.207C300.088 18.207 302.303 18.6906 304.053 19.5138L307.459 12.2753C304.427 10.8485 301 10.207 297.292 10.207V18.207ZM304.063 19.5186C305.804 20.3319 307.053 21.4537 307.938 22.8937L314.753 18.704C313.002 15.8549 310.524 13.7071 307.449 12.2705L304.063 19.5186ZM307.946 22.9062C308.793 24.2727 309.323 26.0974 309.323 28.5771H317.323C317.323 24.9397 316.535 21.5788 314.746 18.6915L307.946 22.9062ZM309.323 28.5771C309.323 31.0933 308.792 33.0395 307.895 34.5706L314.797 38.615C316.536 35.6461 317.323 32.2485 317.323 28.5771H309.323ZM307.906 34.5506C306.983 36.106 305.7 37.2892 303.956 38.136L307.45 45.3327C310.557 43.8241 313.037 41.5795 314.785 38.6349L307.906 34.5506ZM303.967 38.1307C302.197 38.9836 300.007 39.4746 297.292 39.4746V47.4746C300.975 47.4746 304.393 46.8054 307.439 45.338L303.967 38.1307ZM297.292 39.7754C298.559 39.7754 299.855 39.4527 301.019 38.6803C302.162 37.9222 302.943 36.888 303.465 35.8283L296.287 32.2948C296.247 32.3776 296.315 32.2003 296.597 32.0135C296.9 31.8124 297.185 31.7754 297.292 31.7754V39.7754ZM303.465 35.8276C304.441 33.8434 304.693 31.2204 304.693 28.5771H296.693C296.693 31.0315 296.4 32.0649 296.287 32.2955L303.465 35.8276ZM304.693 28.5771C304.693 26.1144 304.438 23.5965 303.417 21.6541L296.335 25.3752C296.33 25.3652 296.359 25.4189 296.402 25.5638C296.445 25.7071 296.495 25.9135 296.54 26.1957C296.633 26.7679 296.693 27.5499 296.693 28.5771H304.693ZM303.454 21.7258C302.912 20.643 302.093 19.6329 300.923 18.9167C299.757 18.2025 298.49 17.9326 297.292 17.9326V25.9326C297.297 25.9326 297.238 25.9331 297.132 25.9061C297.023 25.8782 296.887 25.8262 296.746 25.7395C296.437 25.5507 296.312 25.3316 296.298 25.3035L303.454 21.7258ZM297.292 17.9326C296.085 17.9326 294.83 18.2189 293.682 18.9361C292.543 19.648 291.745 20.6371 291.207 21.6786L298.314 25.3507C298.321 25.3375 298.217 25.5356 297.922 25.7201C297.618 25.91 297.357 25.9326 297.292 25.9326V17.9326ZM291.22 21.6541C290.199 23.5965 289.943 26.1144 289.943 28.5771H297.943C297.943 27.5499 298.004 26.7679 298.097 26.1957C298.142 25.9135 298.191 25.7071 298.234 25.5638C298.278 25.4189 298.307 25.3652 298.302 25.3752L291.22 21.6541ZM289.943 28.5771C289.943 31.2146 290.215 33.8002 291.188 35.8066L298.386 32.3164C298.234 32.0025 297.943 30.9319 297.943 28.5771H289.943ZM291.198 35.8283C291.706 36.8597 292.462 37.8857 293.576 38.6482C294.722 39.4321 296.012 39.7754 297.292 39.7754V31.7754C297.362 31.7754 297.485 31.7848 297.641 31.8308C297.801 31.8777 297.956 31.9515 298.094 32.0457C298.373 32.2369 298.43 32.4059 298.376 32.2948L291.198 35.8283ZM324.529 41.6553L326.329 38.0828L326.313 38.0749L326.297 38.0672L324.529 41.6553ZM318.939 36.5137L315.472 38.507L315.477 38.5173L315.483 38.5275L318.939 36.5137ZM318.913 20.9834L322.372 22.9919L322.377 22.9831L318.913 20.9834ZM324.213 15.9736L326.045 19.5292L324.213 15.9736ZM339.743 15.8682L341.589 12.3198L341.578 12.3138L341.567 12.308L339.743 15.8682ZM344.753 20.6406L341.282 22.6284L341.288 22.6395L341.295 22.6506L344.753 20.6406ZM346.124 30.5283V34.5283H349.007L349.919 31.7932L346.124 30.5283ZM329.697 30.5283V26.5283H325.697V30.5283H329.697ZM331.569 34.5098L329.065 37.629L329.079 37.6397L329.092 37.6504L331.569 34.5098ZM340.481 35.3008L341.58 39.1469L341.6 39.1413L341.619 39.1355L340.481 35.3008ZM345.307 33.1123L346.638 29.3403L344.848 28.7087L343.227 29.6955L345.307 33.1123ZM345.755 33.2705H349.755V30.4404L347.086 29.4985L345.755 33.2705ZM345.755 40.3633L347.743 43.8342L349.755 42.6818V40.3633H345.755ZM340.165 42.71L341.202 46.5731L341.214 46.5699L341.226 46.5666L340.165 42.71ZM329.697 25.8877H325.697V29.8877H329.697V25.8877ZM336.447 25.8877V29.8877H340.447V25.8877H336.447ZM335.577 22.1172L332.171 24.2136L332.194 24.2522L332.219 24.2902L335.577 22.1172ZM330.673 22.1436L333.932 24.4626L333.942 24.448L333.953 24.4332L330.673 22.1436ZM333.046 39.4746C330.27 39.4746 328.072 38.961 326.329 38.0828L322.73 45.2278C325.803 46.7753 329.283 47.4746 333.046 47.4746V39.4746ZM326.297 38.0672C324.542 37.2023 323.282 36.0204 322.396 34.4999L315.483 38.5275C317.199 41.4718 319.665 43.7176 322.761 45.2433L326.297 38.0672ZM322.407 34.5203C321.525 32.9857 321.015 31.0849 321.015 28.6826H313.015C313.015 32.2569 313.787 35.5768 315.472 38.507L322.407 34.5203ZM321.015 28.6826C321.015 26.3128 321.518 24.4639 322.372 22.9919L315.454 18.9749C313.777 21.8623 313.015 25.1462 313.015 28.6826H321.015ZM322.377 22.9831C323.23 21.5059 324.421 20.3666 326.045 19.5292L322.38 12.4181C319.435 13.9362 317.092 16.1366 315.449 18.9837L322.377 22.9831ZM326.045 19.5292C327.663 18.6956 329.692 18.207 332.255 18.207V10.207C328.666 10.207 325.333 10.8962 322.38 12.4181L326.045 19.5292ZM332.255 18.207C334.556 18.207 336.408 18.6542 337.92 19.4283L341.567 12.308C338.754 10.8673 335.614 10.207 332.255 10.207V18.207ZM337.897 19.4166C339.399 20.1984 340.496 21.2566 341.282 22.6284L348.224 18.6529C346.654 15.9114 344.411 13.7879 341.589 12.3198L337.897 19.4166ZM341.295 22.6506C342.084 24.0087 342.546 25.6934 342.546 27.8389H350.546C350.546 24.5 349.813 21.3858 348.211 18.6307L341.295 22.6506ZM342.546 27.8389C342.546 28.3872 342.466 28.8542 342.329 29.2634L349.919 31.7932C350.345 30.515 350.546 29.189 350.546 27.8389H342.546ZM346.124 26.5283H329.697V34.5283H346.124V26.5283ZM325.697 30.5283C325.697 33.3478 326.836 35.8397 329.065 37.629L334.073 31.3906C333.806 31.1759 333.697 31.0135 333.697 30.5283H325.697ZM329.092 37.6504C331.121 39.2509 333.522 39.9863 336.078 39.9863V31.9863C335.118 31.9863 334.513 31.7374 334.046 31.3691L329.092 37.6504ZM336.078 39.9863C337.864 39.9863 339.707 39.6821 341.58 39.1469L339.383 31.4547C338.057 31.8335 336.965 31.9863 336.078 31.9863V39.9863ZM341.619 39.1355C343.59 38.5507 345.513 37.6692 347.386 36.5291L343.227 29.6955C341.865 30.5242 340.572 31.1017 339.344 31.466L341.619 39.1355ZM343.975 36.8843L344.424 37.0425L347.086 29.4985L346.638 29.3403L343.975 36.8843ZM341.755 33.2705V40.3633H349.755V33.2705H341.755ZM343.767 36.8924C342.233 37.7709 340.68 38.4195 339.104 38.8534L341.226 46.5666C343.482 45.9457 345.656 45.0299 347.743 43.8342L343.767 36.8924ZM339.128 38.8468C337.682 39.2351 335.685 39.4746 333.046 39.4746V47.4746C336.102 47.4746 338.852 47.2043 341.202 46.5731L339.128 38.8468ZM325.697 25.123V25.8877H333.697V25.123H325.697ZM329.697 29.8877H336.447V21.8877H329.697V29.8877ZM340.447 25.8877V25.334H332.447V25.8877H340.447ZM340.447 25.334C340.447 23.4477 340.001 21.5911 338.935 19.9442L332.219 24.2902C332.313 24.4362 332.447 24.7242 332.447 25.334H340.447ZM338.984 20.0208C337.652 17.8561 335.479 16.7461 333.046 16.7461V24.7461C333.058 24.7461 332.874 24.745 332.617 24.606C332.352 24.4625 332.212 24.2812 332.171 24.2136L338.984 20.0208ZM333.046 16.7461C330.513 16.7461 328.605 18.1171 327.393 19.8539L333.953 24.4332C334.025 24.3293 333.986 24.423 333.784 24.5422C333.682 24.6022 333.558 24.6569 333.418 24.6948C333.278 24.7326 333.15 24.7461 333.046 24.7461V16.7461ZM327.414 19.8245C326.305 21.3826 325.697 23.1796 325.697 25.123H333.697C333.697 24.9219 333.74 24.7327 333.932 24.4626L327.414 19.8245Z" fill="url(#paint0_linear_7_9)"/>
<defs>
<linearGradient id="paint0_linear_7_9" x1="37.4855" y1="-15.2632" x2="269.45" y2="34.0336" gradientUnits="userSpaceOnUse">
<stop stop-color="#EA4EFC"/>
<stop offset="0.530911" stop-color="#AA099A"/>
<stop offset="1" stop-color="#4C026A"/>
</linearGradient>
</defs>
</svg>
