<svg width="344" height="100" viewBox="0 0 344 100" fill="none" xmlns="http://www.w3.org/2000/svg">
<path d="M39.6396 57.2109H43.6396V53.2109H39.6396V57.2109ZM39.6396 66V70H43.6396V66H39.6396ZM17.8867 66H13.8867V70H17.8867V66ZM17.8867 57.2109V53.2109H13.8867V57.2109H17.8867ZM21.8906 57.2109V61.2109H25.8906V57.2109H21.8906ZM21.8906 35.751H25.8906V31.751H21.8906V35.751ZM18.4482 35.751V31.751H15.027L14.4966 35.1308L18.4482 35.751ZM17.3984 42.4404V46.4404H20.8197L21.3501 43.0606L17.3984 42.4404ZM10.5381 42.4404H6.53809V46.4404H10.5381V42.4404ZM10.5381 27.1572V23.1572H6.53809V27.1572H10.5381ZM47.0859 27.1572H51.0859V23.1572H47.0859V27.1572ZM47.0859 42.4404V46.4404H51.0859V42.4404H47.0859ZM40.25 42.4404L36.2984 43.0606L36.8288 46.4404H40.25V42.4404ZM39.2002 35.751L43.1518 35.1308L42.6214 31.751H39.2002V35.751ZM35.6357 35.751V31.751H31.6357V35.751H35.6357ZM35.6357 57.2109H31.6357V61.2109H35.6357V57.2109ZM35.6396 57.2109V66H43.6396V57.2109H35.6396ZM39.6396 62H17.8867V70H39.6396V62ZM21.8867 66V57.2109H13.8867V66H21.8867ZM17.8867 61.2109H21.8906V53.2109H17.8867V61.2109ZM25.8906 57.2109V35.751H17.8906V57.2109H25.8906ZM21.8906 31.751H18.4482V39.751H21.8906V31.751ZM14.4966 35.1308L13.4468 41.8203L21.3501 43.0606L22.3999 36.3711L14.4966 35.1308ZM17.3984 38.4404H10.5381V46.4404H17.3984V38.4404ZM14.5381 42.4404V27.1572H6.53809V42.4404H14.5381ZM10.5381 31.1572H47.0859V23.1572H10.5381V31.1572ZM43.0859 27.1572V42.4404H51.0859V27.1572H43.0859ZM47.0859 38.4404H40.25V46.4404H47.0859V38.4404ZM44.2016 41.8203L43.1518 35.1308L35.2486 36.3711L36.2984 43.0606L44.2016 41.8203ZM39.2002 31.751H35.6357V39.751H39.2002V31.751ZM31.6357 35.751V57.2109H39.6357V35.751H31.6357ZM35.6357 61.2109H39.6396V53.2109H35.6357V61.2109ZM65.1279 27.5723L62.8147 30.8356L62.8244 30.8424L62.8341 30.8492L65.1279 27.5723ZM65.0791 35.8486L62.7429 32.6017L62.7335 32.6086L62.724 32.6154L65.0791 35.8486ZM69.0342 58.6514H73.0342V54.6514H69.0342V58.6514ZM69.0342 66V70H73.0342V66H69.0342ZM51.041 66H47.041V70H51.041V66ZM51.041 58.6514V54.6514H47.041V58.6514H51.041ZM54.1904 58.6514V62.6514H58.1904V58.6514H54.1904ZM54.1904 47.3965H58.1904V43.3965H54.1904V47.3965ZM51.041 47.3965H47.041V51.3965H51.041V47.3965ZM51.041 41.3906L50.6287 37.4119L47.041 37.7837V41.3906H51.041ZM65.8848 39.8525H69.8848V35.4166L65.4725 35.8738L65.8848 39.8525ZM65.8848 58.6514H61.8848V62.6514H65.8848V58.6514ZM60.0498 33.2891C58.6497 33.2891 57.8564 32.9656 57.3756 32.6154L52.6654 39.0819C54.8214 40.6522 57.3809 41.2891 60.0498 41.2891V33.2891ZM57.3756 32.6154C57.2187 32.5012 57.1733 32.4225 57.1484 32.3703C57.1167 32.3038 57.043 32.1119 57.043 31.6982H49.043C49.043 34.6241 50.191 37.2795 52.6654 39.0819L57.3756 32.6154ZM57.043 31.6982C57.043 31.2832 57.1172 31.1032 57.1404 31.0551C57.1556 31.0235 57.1848 30.9648 57.3225 30.8679L52.7185 24.3255C50.1946 26.1016 49.043 28.7723 49.043 31.6982H57.043ZM57.3225 30.8679C57.799 30.5326 58.6233 30.2051 60.0986 30.2051V22.2051C57.4399 22.2051 54.8787 22.8053 52.7185 24.3255L57.3225 30.8679ZM60.0986 30.2051C61.5931 30.2051 62.3877 30.5328 62.8147 30.8356L67.4411 24.309C65.2966 22.7888 62.7383 22.2051 60.0986 22.2051V30.2051ZM62.8341 30.8492C62.9425 30.9251 62.9625 30.9673 62.9774 30.9988C63.0024 31.0515 63.0811 31.249 63.0811 31.6982H71.0811C71.0811 28.79 69.9731 26.0813 67.4218 24.2953L62.8341 30.8492ZM63.0811 31.6982C63.0811 32.1051 63.0078 32.2908 62.9778 32.353C62.9542 32.4019 62.9081 32.4829 62.7429 32.6017L67.4153 39.0955C69.9091 37.3012 71.0811 34.6439 71.0811 31.6982H63.0811ZM62.724 32.6154C62.2433 32.9656 61.4499 33.2891 60.0498 33.2891V41.2891C62.7187 41.2891 65.2782 40.6522 67.4342 39.0819L62.724 32.6154ZM65.0342 58.6514V66H73.0342V58.6514H65.0342ZM69.0342 62H51.041V70H69.0342V62ZM55.041 66V58.6514H47.041V66H55.041ZM51.041 62.6514H54.1904V54.6514H51.041V62.6514ZM58.1904 58.6514V47.3965H50.1904V58.6514H58.1904ZM54.1904 43.3965H51.041V51.3965H54.1904V43.3965ZM55.041 47.3965V41.3906H47.041V47.3965H55.041ZM51.4533 45.3693L66.297 43.8312L65.4725 35.8738L50.6287 37.4119L51.4533 45.3693ZM61.8848 39.8525V58.6514H69.8848V39.8525H61.8848ZM65.8848 62.6514H69.0342V54.6514H65.8848V62.6514ZM79.2148 64.7305L81.0454 61.1739L81.0298 61.1659L81.0141 61.158L79.2148 64.7305ZM74.0146 59.9453L77.447 57.8913L74.0146 59.9453ZM73.7217 45.834L77.2762 47.6686L77.282 47.6572L77.2878 47.6458L73.7217 45.834ZM78.1162 41.0732L76.054 37.6458L76.0475 37.6497L76.0411 37.6536L78.1162 41.0732ZM87.8574 39.7061L86.9709 43.6066L86.9991 43.613L87.0274 43.619L87.8574 39.7061ZM90.7383 40.7314L88.8419 44.2533L88.8558 44.2608L88.8698 44.2682L90.7383 40.7314ZM92.4473 42.4404L88.7395 43.9412L92.5317 53.3102L96.1779 43.8834L92.4473 42.4404ZM93.4482 39.8525V35.8525H90.7066L89.7176 38.4096L93.4482 39.8525ZM98.7705 39.8525H102.771V35.8525H98.7705V39.8525ZM98.7705 50.6436V54.6436H102.771V50.6436H98.7705ZM91.7148 50.6436L87.7347 51.0416L88.0949 54.6436H91.7148V50.6436ZM85.001 47.8359L88.0739 50.3967L88.0854 50.3828L88.0968 50.3689L85.001 47.8359ZM84.7812 56.5518L81.3827 58.6612L81.4041 58.6956L81.4261 58.7296L84.7812 56.5518ZM87.1006 58.5537L85.5173 62.227L85.5552 62.2433L85.5934 62.2589L87.1006 58.5537ZM93.9609 58.5293L95.102 62.3631L95.1228 62.3569L95.1437 62.3504L93.9609 58.5293ZM97.5986 56.5518L99.8174 53.2236L97.3128 51.5538L95.0149 53.4982L97.5986 56.5518ZM97.9648 56.7959H101.965V54.6552L100.184 53.4677L97.9648 56.7959ZM96.4756 64.4375L94.7103 60.8481L94.6868 60.8597L94.6634 60.8716L96.4756 64.4375ZM92.5205 65.8291L93.4816 69.7119L93.4997 69.7074L93.5177 69.7028L92.5205 65.8291ZM87.0029 62.4395C84.537 62.4395 82.5918 61.9699 81.0454 61.1739L77.3843 68.287C80.265 69.7697 83.5118 70.4395 87.0029 70.4395V62.4395ZM81.0141 61.158C79.4356 60.363 78.2799 59.2831 77.447 57.8913L70.5823 61.9993C72.2234 64.7416 74.5344 66.8519 77.4156 68.3029L81.0141 61.158ZM77.447 57.8913C76.6382 56.5397 76.1592 54.8405 76.1592 52.6455H68.1592C68.1592 56.0494 68.9172 59.2168 70.5823 61.9993L77.447 57.8913ZM76.1592 52.6455C76.1592 50.6893 76.5585 49.059 77.2762 47.6686L70.1672 43.9994C68.8015 46.6454 68.1592 49.5562 68.1592 52.6455H76.1592ZM77.2878 47.6458C77.9815 46.2805 78.935 45.2553 80.1914 44.4929L76.0411 37.6536C73.4888 39.2024 71.5127 41.351 70.1555 44.0222L77.2878 47.6458ZM80.1785 44.5006C81.397 43.7675 82.8946 43.3398 84.8057 43.3398V35.3398C81.6386 35.3398 78.6766 36.0678 76.054 37.6458L80.1785 44.5006ZM84.8057 43.3398C85.4278 43.3398 86.146 43.4191 86.9709 43.6066L88.7439 35.8055C87.4205 35.5047 86.1041 35.3398 84.8057 35.3398V43.3398ZM87.0274 43.619C87.7813 43.7789 88.3743 44.0016 88.8419 44.2533L92.6347 37.2096C91.4096 36.5499 90.082 36.0889 88.6874 35.7931L87.0274 43.619ZM88.8698 44.2682C89.0194 44.3473 89.0343 44.3791 88.9841 44.3289C88.925 44.2699 88.8202 44.1407 88.7395 43.9412L96.1551 40.9397C95.424 39.1335 94.0312 37.9472 92.6068 37.1947L88.8698 44.2682ZM96.1779 43.8834L97.1789 41.2955L89.7176 38.4096L88.7166 40.9974L96.1779 43.8834ZM93.4482 43.8525H98.7705V35.8525H93.4482V43.8525ZM94.7705 39.8525V50.6436H102.771V39.8525H94.7705ZM98.7705 46.6436H91.7148V54.6436H98.7705V46.6436ZM95.695 50.2455C95.5109 48.4043 94.9258 46.5133 93.5901 44.9721L87.5446 50.2115C87.4785 50.1352 87.6584 50.2787 87.7347 51.0416L95.695 50.2455ZM93.5901 44.9721C92.2189 43.3898 90.3383 42.4932 88.1992 42.4932V50.4932C88.1398 50.4932 87.9923 50.4782 87.8159 50.3964C87.6423 50.3158 87.5551 50.2236 87.5446 50.2115L93.5901 44.9721ZM88.1992 42.4932C85.8781 42.4932 83.5575 43.2834 81.9051 45.303L88.0968 50.3689C88.0802 50.3892 88.0497 50.421 88.0059 50.4537C87.9621 50.4864 87.9228 50.5067 87.8983 50.517C87.8494 50.5375 87.9218 50.4932 88.1992 50.4932V42.4932ZM81.9281 45.2752C80.2222 47.3223 79.9023 50.2278 79.9023 52.6943H87.9023C87.9023 51.6978 87.9819 51.0193 88.0785 50.592C88.1805 50.1408 88.2539 50.1807 88.0739 50.3967L81.9281 45.2752ZM79.9023 52.6943C79.9023 54.7415 80.2614 56.8547 81.3827 58.6612L88.1798 54.4423C88.1292 54.3608 87.9023 53.9023 87.9023 52.6943H79.9023ZM81.4261 58.7296C82.4241 60.2671 83.7923 61.4835 85.5173 62.227L88.6839 54.8804C88.5208 54.8101 88.3428 54.6919 88.1364 54.3739L81.4261 58.7296ZM85.5934 62.2589C87.0497 62.8513 88.5805 63.1396 90.1523 63.1396V55.1396C89.5758 55.1396 89.0721 55.0374 88.6078 54.8485L85.5934 62.2589ZM90.1523 63.1396C91.7837 63.1396 93.4418 62.8572 95.102 62.3631L92.8199 54.6955C91.7457 55.0152 90.8647 55.1396 90.1523 55.1396V63.1396ZM95.1437 62.3504C97.0075 61.7735 98.7003 60.8594 100.182 59.6053L95.0149 53.4982C94.3811 54.0345 93.6487 54.4387 92.7782 54.7082L95.1437 62.3504ZM95.3798 59.88L95.746 60.1241L100.184 53.4677L99.8174 53.2236L95.3798 59.88ZM93.9648 56.7959V63.6074H101.965V56.7959H93.9648ZM93.9648 63.6074C93.9648 62.9808 94.1118 62.4762 94.2445 62.1411C94.3783 61.8034 94.5339 61.5461 94.6479 61.3779C94.8673 61.0542 95.0851 60.8382 95.1853 60.7429C95.3943 60.5443 95.5703 60.4241 95.6034 60.4013C95.6991 60.3354 95.7372 60.3185 95.6451 60.3698C95.4891 60.4568 95.1911 60.6116 94.7103 60.8481L98.2409 68.0269C98.7529 67.7751 99.1995 67.5474 99.54 67.3577C99.6961 67.2707 99.9203 67.1419 100.14 66.9905C100.235 66.925 100.458 66.7687 100.698 66.5406C100.814 66.4305 101.043 66.2015 101.27 65.8663C101.443 65.6115 101.965 64.7965 101.965 63.6074H93.9648ZM94.6634 60.8716C94.0277 61.1946 93.0156 61.5712 91.5233 61.9554L93.5177 69.7028C95.3132 69.2406 96.9378 68.6895 98.2878 68.0034L94.6634 60.8716ZM91.5594 61.9463C90.2855 62.2616 88.7762 62.4395 87.0029 62.4395V70.4395C89.2987 70.4395 91.4678 70.2104 93.4816 69.7119L91.5594 61.9463ZM144.767 57.2109H148.767V53.2109H144.767V57.2109ZM144.767 66V70H148.767V66H144.767ZM123.014 66H119.014V70H123.014V66ZM123.014 57.2109V53.2109H119.014V57.2109H123.014ZM127.018 57.2109V61.2109H131.018V57.2109H127.018ZM127.018 35.751H131.018V31.751H127.018V35.751ZM123.575 35.751V31.751H120.154L119.624 35.1308L123.575 35.751ZM122.525 42.4404V46.4404H125.947L126.477 43.0606L122.525 42.4404ZM115.665 42.4404H111.665V46.4404H115.665V42.4404ZM115.665 27.1572V23.1572H111.665V27.1572H115.665ZM152.213 27.1572H156.213V23.1572H152.213V27.1572ZM152.213 42.4404V46.4404H156.213V42.4404H152.213ZM145.377 42.4404L141.425 43.0606L141.956 46.4404H145.377V42.4404ZM144.327 35.751L148.279 35.1308L147.748 31.751H144.327V35.751ZM140.763 35.751V31.751H136.763V35.751H140.763ZM140.763 57.2109H136.763V61.2109H140.763V57.2109ZM140.767 57.2109V66H148.767V57.2109H140.767ZM144.767 62H123.014V70H144.767V62ZM127.014 66V57.2109H119.014V66H127.014ZM123.014 61.2109H127.018V53.2109H123.014V61.2109ZM131.018 57.2109V35.751H123.018V57.2109H131.018ZM127.018 31.751H123.575V39.751H127.018V31.751ZM119.624 35.1308L118.574 41.8203L126.477 43.0606L127.527 36.3711L119.624 35.1308ZM122.525 38.4404H115.665V46.4404H122.525V38.4404ZM119.665 42.4404V27.1572H111.665V42.4404H119.665ZM115.665 31.1572H152.213V23.1572H115.665V31.1572ZM148.213 27.1572V42.4404H156.213V27.1572H148.213ZM152.213 38.4404H145.377V46.4404H152.213V38.4404ZM149.329 41.8203L148.279 35.1308L140.376 36.3711L141.425 43.0606L149.329 41.8203ZM144.327 31.751H140.763V39.751H144.327V31.751ZM136.763 35.751V57.2109H144.763V35.751H136.763ZM140.763 61.2109H144.767V53.2109H140.763V61.2109ZM158.927 65.4629L160.663 61.8595L160.637 61.847L160.611 61.8349L158.927 65.4629ZM155.655 62.7041L152.341 64.9435L155.655 62.7041ZM155.875 54.1104L152.781 51.5751L152.764 51.5958L152.747 51.6167L155.875 54.1104ZM159.635 51.4736L158.23 47.7283L158.217 47.7332L159.635 51.4736ZM170.841 51.5469L169.614 55.354L174.841 57.0388V51.5469H170.841ZM169.181 47.4697L167.056 50.8589L167.067 50.8659L167.079 50.8729L169.181 47.4697ZM159.146 47.543L157.785 43.7819L159.146 47.543ZM156.681 48.6904L155.151 52.3865L157.02 53.1597L158.75 52.1134L156.681 48.6904ZM155.973 48.3975H151.973V51.0712L154.443 52.0935L155.973 48.3975ZM155.973 41.293L154.633 37.5239L151.973 38.4694V41.293H155.973ZM162.003 39.8037L162.569 43.7635L162.584 43.7613L162.599 43.759L162.003 39.8037ZM182.584 58.6514H178.584V62.6514H182.584V58.6514ZM184.879 58.6514H188.879V54.6514H184.879V58.6514ZM184.879 66V70H188.879V66H184.879ZM172.379 66L168.521 67.0584L169.329 70H172.379V66ZM171.28 61.9961L175.138 60.9377L172.413 51.006L167.72 60.1734L171.28 61.9961ZM169.669 59.9209L168.47 56.1049L168.454 56.11L168.438 56.1151L169.669 59.9209ZM170.841 59.3594L173.554 62.2986L174.841 61.1107V59.3594H170.841ZM170.841 55.2578H174.841V51.7557L171.369 51.2929L170.841 55.2578ZM169.669 54.9648L170.829 51.1367L170.761 51.1162L170.693 51.098L169.669 54.9648ZM166.153 55.5508L163.282 52.7662L163.26 52.789L163.238 52.8121L166.153 55.5508ZM166.104 59.457L163.183 62.1897L163.229 62.2383L163.276 62.2855L166.104 59.457ZM163.443 62.4395C162.319 62.4395 161.417 62.2226 160.663 61.8595L157.19 69.0663C159.139 70.0052 161.247 70.4395 163.443 70.4395V62.4395ZM160.611 61.8349C159.878 61.4944 159.361 61.0438 158.97 60.4647L152.341 64.9435C153.577 66.7733 155.241 68.1619 157.242 69.0909L160.611 61.8349ZM158.97 60.4647C158.646 59.9857 158.435 59.3828 158.435 58.5049H150.435C150.435 60.817 151.037 63.0136 152.341 64.9435L158.97 60.4647ZM158.435 58.5049C158.435 57.5706 158.675 57.015 159.003 56.604L152.747 51.6167C151.155 53.6146 150.435 55.9887 150.435 58.5049H158.435ZM158.969 56.6456C159.446 56.064 160.099 55.5753 161.052 55.2141L158.217 47.7332C156.078 48.5439 154.225 49.8129 152.781 51.5751L158.969 56.6456ZM161.039 55.2189C162.117 54.8148 163.322 54.5947 164.688 54.5947V46.5947C162.442 46.5947 160.278 46.9605 158.23 47.7283L161.039 55.2189ZM164.688 54.5947C166.417 54.5947 168.053 54.8509 169.614 55.354L172.068 47.7397C169.69 46.9733 167.224 46.5947 164.688 46.5947V54.5947ZM174.841 51.5469V50.4482H166.841V51.5469H174.841ZM174.841 50.4482C174.841 47.761 173.571 45.4797 171.283 44.0665L167.079 50.8729C167.113 50.8944 167.101 50.8919 167.065 50.855C167.026 50.8163 166.977 50.7554 166.932 50.6745C166.887 50.5936 166.861 50.5198 166.849 50.4673C166.836 50.4174 166.841 50.4065 166.841 50.4482H174.841ZM171.305 44.0806C169.351 42.8557 167.038 42.4443 164.737 42.4443V50.4443C166.18 50.4443 166.829 50.7166 167.056 50.8589L171.305 44.0806ZM164.737 42.4443C163.622 42.4443 162.463 42.5798 161.28 42.8125L162.824 50.6621C163.627 50.5042 164.257 50.4443 164.737 50.4443V42.4443ZM161.28 42.8125C160.088 43.047 158.922 43.37 157.785 43.7819L160.508 51.304C161.259 51.0323 162.03 50.8183 162.824 50.6621L161.28 42.8125ZM157.785 43.7819C156.648 44.1936 155.579 44.6822 154.611 45.2675L158.75 52.1134C159.182 51.8523 159.757 51.5759 160.508 51.304L157.785 43.7819ZM158.21 44.9944L157.502 44.7014L154.443 52.0935L155.151 52.3865L158.21 44.9944ZM159.973 48.3975V41.293H151.973V48.3975H159.973ZM157.312 45.062C159.033 44.4505 160.784 44.0185 162.569 43.7635L161.437 35.8439C159.12 36.1749 156.851 36.7357 154.633 37.5239L157.312 45.062ZM162.599 43.759C164.485 43.4747 166.196 43.3398 167.74 43.3398V35.3398C165.736 35.3398 163.623 35.5143 161.406 35.8484L162.599 43.759ZM167.74 43.3398C172.444 43.3398 175.331 44.0242 176.912 44.9135C178.158 45.6142 178.584 46.3867 178.584 47.6895H186.584C186.584 43.4258 184.536 40.0235 180.834 37.9409C177.467 36.0471 172.932 35.3398 167.74 35.3398V43.3398ZM178.584 47.6895V58.6514H186.584V47.6895H178.584ZM182.584 62.6514H184.879V54.6514H182.584V62.6514ZM180.879 58.6514V66H188.879V58.6514H180.879ZM184.879 62H172.379V70H184.879V62ZM176.236 64.9416L175.138 60.9377L167.423 63.0545L168.521 67.0584L176.236 64.9416ZM167.72 60.1734C167.425 60.7498 166.951 61.27 166.112 61.7213L169.905 68.765C172.029 67.6213 173.736 65.9768 174.841 63.8188L167.72 60.1734ZM166.112 61.7213C165.168 62.2297 164.294 62.4395 163.443 62.4395V70.4395C165.718 70.4395 167.887 69.8517 169.905 68.765L166.112 61.7213ZM168.033 64.1895C169.022 64.1895 169.982 64.0238 170.9 63.7267L168.438 56.1151C168.249 56.1761 168.119 56.1895 168.033 56.1895V64.1895ZM170.868 63.7369C171.523 63.5311 172.65 63.1331 173.554 62.2986L168.128 56.4202C168.287 56.2735 168.423 56.1794 168.504 56.1278C168.587 56.0748 168.644 56.0468 168.661 56.039C168.687 56.0264 168.636 56.0527 168.47 56.1049L170.868 63.7369ZM174.841 59.3594V55.2578H166.841V59.3594H174.841ZM171.369 51.2929C171.424 51.3002 171.449 51.3058 171.434 51.3028C171.422 51.3003 171.39 51.2934 171.335 51.2796C171.223 51.2515 171.057 51.2059 170.829 51.1367L168.509 58.7929C169.059 58.9597 169.719 59.1437 170.312 59.2227L171.369 51.2929ZM170.693 51.098C169.929 50.8959 169.089 50.7451 168.229 50.7451V58.7451C168.196 58.7451 168.213 58.7425 168.291 58.7543C168.367 58.7659 168.483 58.7888 168.645 58.8317L170.693 51.098ZM168.229 50.7451C166.464 50.7451 164.673 51.3316 163.282 52.7662L169.025 58.3354C168.888 58.4769 168.706 58.5994 168.51 58.6754C168.326 58.7469 168.213 58.7451 168.229 58.7451V50.7451ZM163.238 52.8121C161.893 54.2435 161.396 56.0172 161.396 57.6992H169.396C169.396 57.6252 169.407 57.6821 169.358 57.8198C169.306 57.9697 169.209 58.1404 169.069 58.2895L163.238 52.8121ZM161.396 57.6992C161.396 59.4203 162.045 60.973 163.183 62.1897L169.026 56.7244C169.095 56.7987 169.201 56.9386 169.284 57.1447C169.368 57.3532 169.396 57.5501 169.396 57.6992H161.396ZM163.276 62.2855C164.632 63.641 166.353 64.1895 168.033 64.1895V56.1895C168.043 56.1895 168.175 56.1916 168.373 56.2669C168.582 56.3464 168.779 56.4746 168.933 56.6286L163.276 62.2855ZM195.23 64.7305L197.061 61.1739L197.045 61.1659L197.03 61.158L195.23 64.7305ZM190.03 59.9453L193.463 57.8913L190.03 59.9453ZM189.737 45.834L193.292 47.6686L193.298 47.6572L193.303 47.6458L189.737 45.834ZM194.132 41.0732L192.07 37.6458L192.063 37.6497L192.057 37.6536L194.132 41.0732ZM203.873 39.7061L202.987 43.6066L203.015 43.613L203.043 43.619L203.873 39.7061ZM206.754 40.7314L204.858 44.2533L204.871 44.2608L204.885 44.2682L206.754 40.7314ZM208.463 42.4404L204.755 43.9412L208.547 53.3102L212.194 43.8834L208.463 42.4404ZM209.464 39.8525V35.8525H206.722L205.733 38.4096L209.464 39.8525ZM214.786 39.8525H218.786V35.8525H214.786V39.8525ZM214.786 50.6436V54.6436H218.786V50.6436H214.786ZM207.73 50.6436L203.75 51.0416L204.111 54.6436H207.73V50.6436ZM201.017 47.8359L204.089 50.3967L204.101 50.3828L204.112 50.3689L201.017 47.8359ZM200.797 56.5518L197.398 58.6612L197.42 58.6956L197.442 58.7296L200.797 56.5518ZM203.116 58.5537L201.533 62.227L201.571 62.2433L201.609 62.2589L203.116 58.5537ZM209.977 58.5293L211.118 62.3631L211.138 62.3569L211.159 62.3504L209.977 58.5293ZM213.614 56.5518L215.833 53.2236L213.328 51.5538L211.03 53.4982L213.614 56.5518ZM213.98 56.7959H217.98V54.6552L216.199 53.4677L213.98 56.7959ZM212.491 64.4375L210.726 60.8481L210.702 60.8597L210.679 60.8716L212.491 64.4375ZM208.536 65.8291L209.497 69.7119L209.515 69.7074L209.533 69.7028L208.536 65.8291ZM203.019 62.4395C200.553 62.4395 198.607 61.9699 197.061 61.1739L193.4 68.287C196.281 69.7697 199.527 70.4395 203.019 70.4395V62.4395ZM197.03 61.158C195.451 60.363 194.296 59.2831 193.463 57.8913L186.598 61.9993C188.239 64.7416 190.55 66.8519 193.431 68.3029L197.03 61.158ZM193.463 57.8913C192.654 56.5397 192.175 54.8405 192.175 52.6455H184.175C184.175 56.0494 184.933 59.2168 186.598 61.9993L193.463 57.8913ZM192.175 52.6455C192.175 50.6893 192.574 49.059 193.292 47.6686L186.183 43.9994C184.817 46.6454 184.175 49.5562 184.175 52.6455H192.175ZM193.303 47.6458C193.997 46.2805 194.951 45.2553 196.207 44.4929L192.057 37.6536C189.504 39.2024 187.528 41.351 186.171 44.0222L193.303 47.6458ZM196.194 44.5006C197.413 43.7675 198.91 43.3398 200.821 43.3398V35.3398C197.654 35.3398 194.692 36.0678 192.07 37.6458L196.194 44.5006ZM200.821 43.3398C201.443 43.3398 202.162 43.4191 202.987 43.6066L204.76 35.8055C203.436 35.5047 202.12 35.3398 200.821 35.3398V43.3398ZM203.043 43.619C203.797 43.7789 204.39 44.0016 204.858 44.2533L208.65 37.2096C207.425 36.5499 206.098 36.0889 204.703 35.7931L203.043 43.619ZM204.885 44.2682C205.035 44.3473 205.05 44.3791 205 44.3289C204.941 44.2699 204.836 44.1407 204.755 43.9412L212.171 40.9397C211.44 39.1335 210.047 37.9472 208.622 37.1947L204.885 44.2682ZM212.194 43.8834L213.195 41.2955L205.733 38.4096L204.732 40.9974L212.194 43.8834ZM209.464 43.8525H214.786V35.8525H209.464V43.8525ZM210.786 39.8525V50.6436H218.786V39.8525H210.786ZM214.786 46.6436H207.73V54.6436H214.786V46.6436ZM211.711 50.2455C211.526 48.4043 210.941 46.5133 209.606 44.9721L203.56 50.2115C203.494 50.1352 203.674 50.2787 203.75 51.0416L211.711 50.2455ZM209.606 44.9721C208.234 43.3898 206.354 42.4932 204.215 42.4932V50.4932C204.155 50.4932 204.008 50.4782 203.832 50.3964C203.658 50.3158 203.571 50.2236 203.56 50.2115L209.606 44.9721ZM204.215 42.4932C201.894 42.4932 199.573 43.2834 197.921 45.303L204.112 50.3689C204.096 50.3892 204.065 50.421 204.022 50.4537C203.978 50.4864 203.938 50.5067 203.914 50.517C203.865 50.5375 203.937 50.4932 204.215 50.4932V42.4932ZM197.944 45.2752C196.238 47.3223 195.918 50.2278 195.918 52.6943H203.918C203.918 51.6978 203.997 51.0193 204.094 50.592C204.196 50.1408 204.269 50.1807 204.089 50.3967L197.944 45.2752ZM195.918 52.6943C195.918 54.7415 196.277 56.8547 197.398 58.6612L204.195 54.4423C204.145 54.3608 203.918 53.9023 203.918 52.6943H195.918ZM197.442 58.7296C198.44 60.2671 199.808 61.4835 201.533 62.227L204.7 54.8804C204.536 54.8101 204.358 54.6919 204.152 54.3739L197.442 58.7296ZM201.609 62.2589C203.065 62.8513 204.596 63.1396 206.168 63.1396V55.1396C205.591 55.1396 205.088 55.0374 204.623 54.8485L201.609 62.2589ZM206.168 63.1396C207.799 63.1396 209.457 62.8572 211.118 62.3631L208.836 54.6955C207.761 55.0152 206.88 55.1396 206.168 55.1396V63.1396ZM211.159 62.3504C213.023 61.7735 214.716 60.8594 216.198 59.6053L211.03 53.4982C210.397 54.0345 209.664 54.4387 208.794 54.7082L211.159 62.3504ZM211.395 59.88L211.762 60.1241L216.199 53.4677L215.833 53.2236L211.395 59.88ZM209.98 56.7959V63.6074H217.98V56.7959H209.98ZM209.98 63.6074C209.98 62.9808 210.127 62.4762 210.26 62.1411C210.394 61.8034 210.55 61.5461 210.664 61.3779C210.883 61.0542 211.101 60.8382 211.201 60.7429C211.41 60.5443 211.586 60.4241 211.619 60.4013C211.715 60.3354 211.753 60.3185 211.661 60.3698C211.505 60.4568 211.207 60.6116 210.726 60.8481L214.256 68.0269C214.769 67.7751 215.215 67.5474 215.556 67.3577C215.712 67.2707 215.936 67.1419 216.156 66.9905C216.251 66.925 216.473 66.7687 216.713 66.5406C216.829 66.4305 217.059 66.2015 217.286 65.8663C217.459 65.6115 217.98 64.7965 217.98 63.6074H209.98ZM210.679 60.8716C210.043 61.1946 209.031 61.5712 207.539 61.9554L209.533 69.7028C211.329 69.2406 212.953 68.6895 214.303 68.0034L210.679 60.8716ZM207.575 61.9463C206.301 62.2616 204.792 62.4395 203.019 62.4395V70.4395C205.314 70.4395 207.483 70.2104 209.497 69.7119L207.575 61.9463ZM260.782 57.2109H264.782V53.2109H260.782V57.2109ZM260.782 66V70H264.782V66H260.782ZM239.029 66H235.029V70H239.029V66ZM239.029 57.2109V53.2109H235.029V57.2109H239.029ZM243.033 57.2109V61.2109H247.033V57.2109H243.033ZM243.033 35.751H247.033V31.751H243.033V35.751ZM239.591 35.751V31.751H236.17L235.639 35.1308L239.591 35.751ZM238.541 42.4404V46.4404H241.962L242.493 43.0606L238.541 42.4404ZM231.681 42.4404H227.681V46.4404H231.681V42.4404ZM231.681 27.1572V23.1572H227.681V27.1572H231.681ZM268.229 27.1572H272.229V23.1572H268.229V27.1572ZM268.229 42.4404V46.4404H272.229V42.4404H268.229ZM261.393 42.4404L257.441 43.0606L257.971 46.4404H261.393V42.4404ZM260.343 35.751L264.294 35.1308L263.764 31.751H260.343V35.751ZM256.778 35.751V31.751H252.778V35.751H256.778ZM256.778 57.2109H252.778V61.2109H256.778V57.2109ZM256.782 57.2109V66H264.782V57.2109H256.782ZM260.782 62H239.029V70H260.782V62ZM243.029 66V57.2109H235.029V66H243.029ZM239.029 61.2109H243.033V53.2109H239.029V61.2109ZM247.033 57.2109V35.751H239.033V57.2109H247.033ZM243.033 31.751H239.591V39.751H243.033V31.751ZM235.639 35.1308L234.589 41.8203L242.493 43.0606L243.542 36.3711L235.639 35.1308ZM238.541 38.4404H231.681V46.4404H238.541V38.4404ZM235.681 42.4404V27.1572H227.681V42.4404H235.681ZM231.681 31.1572H268.229V23.1572H231.681V31.1572ZM264.229 27.1572V42.4404H272.229V27.1572H264.229ZM268.229 38.4404H261.393V46.4404H268.229V38.4404ZM265.344 41.8203L264.294 35.1308L256.391 36.3711L257.441 43.0606L265.344 41.8203ZM260.343 31.751H256.778V39.751H260.343V31.751ZM252.778 35.751V57.2109H260.778V35.751H252.778ZM256.778 61.2109H260.782V53.2109H256.778V61.2109ZM277.457 64.8037L279.235 61.2207L279.214 61.2103L279.193 61.2001L277.457 64.8037ZM272.257 45.3945L275.652 47.5095L275.656 47.5033L275.66 47.4971L272.257 45.3945ZM277.457 40.8779L279.106 44.5221L279.117 44.5171L279.128 44.5121L277.457 40.8779ZM293.033 40.9023L291.33 44.5216L291.34 44.5264L293.033 40.9023ZM298.209 45.4434L294.801 47.5382L294.805 47.5445L294.809 47.5507L298.209 45.4434ZM298.209 60.0674L301.648 62.1095L301.654 62.0996L301.66 62.0896L298.209 60.0674ZM292.984 64.8281L294.72 68.4318L294.731 68.4265L292.984 64.8281ZM287.589 57.7236L291.178 59.4904L291.178 59.4897L287.589 57.7236ZM287.589 47.958L284.011 49.7469L284.029 49.7829L284.048 49.8185L287.589 47.958ZM282.853 47.958L286.394 49.8185L286.4 49.8063L286.406 49.7941L282.853 47.958ZM282.877 57.7236L279.278 59.4687L279.283 59.4796L279.288 59.4904L282.877 57.7236ZM285.196 62.4395C282.725 62.4395 280.777 61.9858 279.235 61.2207L275.679 68.3867C278.532 69.8027 281.744 70.4395 285.196 70.4395V62.4395ZM279.193 61.2001C277.656 60.4596 276.522 59.4165 275.696 58.0252L268.817 62.1095C270.465 64.8849 272.798 66.9994 275.721 68.4073L279.193 61.2001ZM275.696 58.0252C274.888 56.6644 274.401 54.9235 274.401 52.6455H266.401C266.401 56.0967 267.151 59.3037 268.817 62.1095L275.696 58.0252ZM274.401 52.6455C274.401 50.3817 274.889 48.735 275.652 47.5095L268.862 43.2795C267.151 46.0254 266.401 49.2127 266.401 52.6455H274.401ZM275.66 47.4971C276.461 46.2001 277.571 45.2171 279.106 44.5221L275.808 37.2337C272.884 38.557 270.527 40.585 268.854 43.292L275.66 47.4971ZM279.128 44.5121C280.742 43.7699 282.733 43.3398 285.196 43.3398V35.3398C281.8 35.3398 278.631 35.9352 275.786 37.2438L279.128 44.5121ZM285.196 43.3398C287.751 43.3398 289.758 43.7817 291.33 44.5216L294.736 37.2831C291.882 35.9397 288.663 35.3398 285.196 35.3398V43.3398ZM291.34 44.5264C292.903 45.2564 294.014 46.2571 294.801 47.5382L301.617 43.3485C299.963 40.6583 297.623 38.6316 294.726 37.2783L291.34 44.5264ZM294.809 47.5507C295.559 48.7597 296.04 50.3923 296.04 52.6455H304.04C304.04 49.2346 303.301 46.0658 301.609 43.336L294.809 47.5507ZM296.04 52.6455C296.04 54.9325 295.557 56.6808 294.758 58.0452L301.66 62.0896C303.302 59.2873 304.04 56.0877 304.04 52.6455H296.04ZM294.77 58.0252C293.945 59.414 292.802 60.4702 291.237 61.2298L294.731 68.4265C297.659 67.0051 299.999 64.8875 301.648 62.1095L294.77 58.0252ZM291.248 61.2245C289.656 61.9914 287.674 62.4395 285.196 62.4395V70.4395C288.643 70.4395 291.853 69.8132 294.72 68.4318L291.248 61.2245ZM285.196 63.3105C286.42 63.3105 287.678 62.9985 288.811 62.2472C289.922 61.5103 290.677 60.5078 291.178 59.4904L284 55.9569C283.98 55.9974 284.076 55.7884 284.389 55.5804C284.724 55.3581 285.047 55.3105 285.196 55.3105V63.3105ZM291.178 59.4897C292.114 57.5875 292.346 55.1 292.346 52.6455H284.346C284.346 53.6963 284.289 54.5017 284.2 55.0954C284.157 55.3885 284.109 55.6048 284.067 55.7565C284.024 55.9106 283.995 55.9681 284 55.9576L291.178 59.4897ZM292.346 52.6455C292.346 50.356 292.11 47.9631 291.13 46.0975L284.048 49.8185C284.03 49.7836 284.122 49.9557 284.208 50.4877C284.29 50.9974 284.346 51.7049 284.346 52.6455H292.346ZM291.167 46.1692C290.645 45.1254 289.851 44.1446 288.713 43.448C287.578 42.7533 286.35 42.4932 285.196 42.4932V50.4932C285.149 50.4932 284.873 50.4772 284.536 50.2708C284.196 50.0624 284.045 49.814 284.011 49.7469L291.167 46.1692ZM285.196 42.4932C284.031 42.4932 282.813 42.7697 281.697 43.4674C280.589 44.1597 279.817 45.1196 279.299 46.1219L286.406 49.7941C286.393 49.8199 286.263 50.0473 285.937 50.2514C285.602 50.4608 285.303 50.4932 285.196 50.4932V42.4932ZM279.312 46.0975C278.331 47.9631 278.096 50.356 278.096 52.6455H286.096C286.096 51.7049 286.151 50.9974 286.234 50.4877C286.32 49.9557 286.412 49.7836 286.394 49.8185L279.312 46.0975ZM278.096 52.6455C278.096 55.0981 278.347 57.5483 279.278 59.4687L286.476 55.9785C286.366 55.7505 286.096 54.8153 286.096 52.6455H278.096ZM279.288 59.4904C279.775 60.4795 280.505 61.4738 281.589 62.215C282.703 62.9778 283.957 63.3105 285.196 63.3105V55.3105C285.41 55.3105 285.764 55.3788 286.106 55.6126C286.416 55.8249 286.499 56.0257 286.466 55.9569L279.288 59.4904ZM310.416 64.7549L312.215 61.1824L312.2 61.1746L312.184 61.1668L310.416 64.7549ZM305.24 59.9941L301.772 61.9875L301.778 61.9977L301.784 62.0079L305.24 59.9941ZM305.216 45.6143L308.675 47.6228L308.68 47.614L305.216 45.6143ZM310.123 40.9756L311.956 44.5311L310.123 40.9756ZM324.503 40.8779L326.349 37.3295L326.338 37.3236L326.326 37.3178L324.503 40.8779ZM329.142 45.2969L325.67 47.2846L325.677 47.2958L325.683 47.3068L329.142 45.2969ZM330.411 54.4521V58.4521H333.294L334.206 55.7171L330.411 54.4521ZM315.201 54.4521V50.4521H311.201V54.4521H315.201ZM316.935 58.1387L314.43 61.2579L314.444 61.2687L314.457 61.2793L316.935 58.1387ZM325.187 58.8711L326.285 62.7172L326.305 62.7116L326.324 62.7059L325.187 58.8711ZM329.654 56.8447L330.986 53.0728L329.196 52.4411L327.575 53.4279L329.654 56.8447ZM330.069 56.9912H334.069V54.1612L331.401 53.2192L330.069 56.9912ZM330.069 63.5586L332.058 67.0295L334.069 65.8771V63.5586H330.069ZM324.894 65.7314L325.931 69.5946L325.943 69.5914L325.955 69.588L324.894 65.7314ZM315.201 50.1553H311.201V54.1553H315.201V50.1553ZM321.451 50.1553V54.1553H325.451V50.1553H321.451ZM320.646 46.6641L317.239 48.7605L317.263 48.799L317.287 48.8371L320.646 46.6641ZM316.104 46.6885L319.364 49.0075L319.374 48.9929L319.384 48.9782L316.104 46.6885ZM318.302 62.4395C315.768 62.4395 313.781 61.9708 312.215 61.1824L308.617 68.3274C311.511 69.7851 314.781 70.4395 318.302 70.4395V62.4395ZM312.184 61.1668C310.608 60.3904 309.486 59.3355 308.696 57.9803L301.784 62.0079C303.403 64.7869 305.731 66.9058 308.648 68.3429L312.184 61.1668ZM308.708 58.0008C307.921 56.6316 307.458 54.9241 307.458 52.7432H299.458C299.458 56.0961 300.183 59.2226 301.772 61.9875L308.708 58.0008ZM307.458 52.7432C307.458 50.5921 307.914 48.9333 308.675 47.6228L301.757 43.6057C300.174 46.3317 299.458 49.4255 299.458 52.7432H307.458ZM308.68 47.614C309.44 46.297 310.5 45.2813 311.956 44.5311L308.291 37.42C305.514 38.8509 303.303 40.9277 301.752 43.6146L308.68 47.614ZM311.956 44.5311C313.404 43.7848 315.234 43.3398 317.569 43.3398V35.3398C314.208 35.3398 311.074 35.9854 308.291 37.42L311.956 44.5311ZM317.569 43.3398C319.66 43.3398 321.328 43.746 322.679 44.4381L326.326 37.3178C323.674 35.9591 320.719 35.3398 317.569 35.3398V43.3398ZM322.657 44.4263C323.999 45.1248 324.972 46.0652 325.67 47.2846L332.613 43.3091C331.13 40.72 329.011 38.7144 326.349 37.3295L322.657 44.4263ZM325.683 47.3068C326.384 48.5126 326.802 50.0195 326.802 51.9619H334.802C334.802 48.8262 334.113 45.8897 332.6 43.2869L325.683 47.3068ZM326.802 51.9619C326.802 52.4399 326.732 52.8405 326.616 53.1872L334.206 55.7171C334.611 54.5013 334.802 53.2418 334.802 51.9619H326.802ZM330.411 50.4521H315.201V58.4521H330.411V50.4521ZM311.201 54.4521C311.201 57.1492 312.294 59.5428 314.43 61.2579L319.439 55.0195C319.292 54.9015 319.261 54.8335 319.254 54.8192C319.246 54.8011 319.201 54.7036 319.201 54.4521H311.201ZM314.457 61.2793C316.394 62.8068 318.684 63.5059 321.109 63.5059V55.5059C320.28 55.5059 319.786 55.2934 319.412 54.998L314.457 61.2793ZM321.109 63.5059C322.796 63.5059 324.53 63.2186 326.285 62.7172L324.088 55.025C322.88 55.3699 321.897 55.5059 321.109 55.5059V63.5059ZM326.324 62.7059C328.177 62.1561 329.981 61.3287 331.734 60.2615L327.575 53.4279C326.333 54.1837 325.158 54.7071 324.049 55.0363L326.324 62.7059ZM328.323 60.6167L328.738 60.7632L331.401 53.2192L330.986 53.0728L328.323 60.6167ZM326.069 56.9912V63.5586H334.069V56.9912H326.069ZM328.081 60.0877C326.682 60.8893 325.267 61.4801 323.832 61.8748L325.955 69.588C328.069 69.0063 330.104 68.1484 332.058 67.0295L328.081 60.0877ZM323.856 61.8683C322.551 62.2188 320.73 62.4395 318.302 62.4395V70.4395C321.147 70.4395 323.721 70.1881 325.931 69.5946L323.856 61.8683ZM311.201 49.4473V50.1553H319.201V49.4473H311.201ZM315.201 54.1553H321.451V46.1553H315.201V54.1553ZM325.451 50.1553V49.6426H317.451V50.1553H325.451ZM325.451 49.6426C325.451 47.8487 325.026 46.0716 324.004 44.4911L317.287 48.8371C317.339 48.9167 317.451 49.1253 317.451 49.6426H325.451ZM324.052 44.5677C322.762 42.4707 320.651 41.3945 318.302 41.3945V49.3945C318.272 49.3945 318.052 49.385 317.764 49.2291C317.468 49.0686 317.301 48.862 317.239 48.7605L324.052 44.5677ZM318.302 41.3945C315.838 41.3945 313.989 42.7311 312.825 44.3988L319.384 48.9782C319.433 48.9087 319.367 49.0283 319.135 49.1648C318.877 49.317 318.573 49.3945 318.302 49.3945V41.3945ZM312.845 44.3695C311.785 45.8598 311.201 47.5833 311.201 49.4473H319.201C319.201 49.3256 319.22 49.2099 319.364 49.0075L312.845 44.3695Z" fill="url(#paint0_linear_7_6)"/>
<defs>
<linearGradient id="paint0_linear_7_6" x1="9" y1="5" x2="260.254" y2="55.6415" gradientUnits="userSpaceOnUse">
<stop stop-color="#EA4EFC"/>
<stop offset="0.0001" stop-color="#AA099A"/>
<stop offset="1" stop-color="#4C026A"/>
</linearGradient>
</defs>
</svg>
